<svg width="524" height="417" viewBox="0 0 524 417" fill="none" xmlns="http://www.w3.org/2000/svg">
<path d="M387.29 63.5101C387.841 63.4772 388.261 63.0036 388.228 62.4523L387.692 53.4683C387.66 52.917 387.186 52.4967 386.635 52.5296C386.083 52.5625 385.663 53.0361 385.696 53.5874L386.172 61.5732L378.186 62.0494C377.635 62.0823 377.215 62.5559 377.248 63.1072C377.281 63.6585 377.754 64.0788 378.305 64.0459L387.29 63.5101ZM134.32 62.5119L134.984 63.2598C168.454 33.5574 212.507 15.521 260.775 15.521V14.521V13.521C211.999 13.521 167.478 31.7493 133.657 61.7639L134.32 62.5119ZM260.775 14.521V15.521C309.043 15.521 353.096 33.5574 386.566 63.2598L387.23 62.5119L387.894 61.7639C354.072 31.7493 309.551 13.521 260.775 13.521V14.521Z" fill="#B98C25"/>
<path d="M167.23 376.682C166.698 376.831 166.388 377.383 166.537 377.915L168.965 386.581C169.114 387.113 169.666 387.423 170.198 387.274C170.73 387.125 171.04 386.573 170.891 386.042L168.733 378.338L176.436 376.18C176.968 376.031 177.278 375.479 177.129 374.947C176.98 374.415 176.428 374.105 175.896 374.254L167.23 376.682ZM344 382.908L343.563 382.009C318.549 394.169 290.46 400.991 260.775 400.991L260.775 401.991L260.775 402.991C290.77 402.991 319.157 396.097 344.437 383.807L344 382.908ZM260.775 401.991L260.775 400.991C227.067 400.991 195.416 392.195 167.99 376.773L167.5 377.645L167.01 378.517C194.728 394.102 226.715 402.991 260.775 402.991L260.775 401.991Z" fill="#B98C25"/>
<rect x="339.398" y="69.4756" width="184" height="67" rx="33.5" fill="#B98C25"/>
<rect x="339.398" y="69.4756" width="184" height="67" rx="33.5" stroke="#CCA852"/>
<path d="M402.408 110.976H399.591V97.4756H409.275V99.9423H402.408V102.942H408.708V105.409H402.408V110.976ZM411.167 110.976V103.709H409.8V100.976H412.6V102.942H413.3C413.567 102.242 413.989 101.72 414.567 101.376C415.145 101.031 415.795 100.859 416.517 100.859H417.367V103.259H416.4C415.534 103.259 414.895 103.503 414.484 103.992C414.084 104.481 413.884 105.126 413.884 105.926V110.976H411.167ZM422.733 111.176C421.656 111.176 420.717 110.964 419.917 110.542C419.117 110.109 418.5 109.503 418.067 108.726C417.633 107.937 417.417 107.009 417.417 105.942C417.417 104.876 417.628 103.959 418.05 103.192C418.472 102.414 419.072 101.82 419.85 101.409C420.639 100.987 421.567 100.776 422.633 100.776C423.678 100.776 424.572 100.976 425.317 101.376C426.072 101.776 426.65 102.348 427.05 103.092C427.45 103.837 427.65 104.726 427.65 105.759V106.692H420.067C420.178 107.437 420.461 108.003 420.917 108.392C421.372 108.781 421.972 108.976 422.717 108.976C423.306 108.976 423.772 108.876 424.117 108.676C424.461 108.476 424.706 108.17 424.85 107.759H427.617C427.395 108.826 426.856 109.664 426 110.276C425.145 110.876 424.056 111.176 422.733 111.176ZM420.133 104.859H425C424.911 104.226 424.667 103.753 424.267 103.442C423.867 103.12 423.328 102.959 422.65 102.959C421.972 102.959 421.417 103.12 420.983 103.442C420.561 103.764 420.278 104.237 420.133 104.859ZM428.945 110.976V100.976H431.712V110.976H428.945ZM430.328 99.9923C429.906 99.9923 429.545 99.8478 429.245 99.5589C428.956 99.2589 428.812 98.8978 428.812 98.4756C428.812 98.0534 428.956 97.6978 429.245 97.4089C429.545 97.1089 429.906 96.9589 430.328 96.9589C430.75 96.9589 431.106 97.1089 431.395 97.4089C431.695 97.6978 431.845 98.0534 431.845 98.4756C431.845 98.8978 431.695 99.2589 431.395 99.5589C431.106 99.8478 430.75 99.9923 430.328 99.9923ZM438.354 115.176C436.854 115.176 435.631 114.87 434.687 114.259C433.754 113.659 433.198 112.82 433.02 111.742H435.954C436.22 112.564 436.992 112.976 438.27 112.976C439.137 112.976 439.798 112.776 440.254 112.376C440.72 111.987 440.954 111.42 440.954 110.676V109.342H440.87C440.57 109.876 440.154 110.281 439.62 110.559C439.098 110.837 438.47 110.976 437.737 110.976C436.792 110.976 435.97 110.77 435.27 110.359C434.581 109.937 434.042 109.342 433.654 108.576C433.276 107.809 433.087 106.909 433.087 105.876C433.087 104.32 433.515 103.081 434.37 102.159C435.237 101.237 436.42 100.776 437.92 100.776C438.765 100.776 439.481 100.937 440.07 101.259C440.67 101.581 441.148 102.031 441.504 102.609H442.204V100.976H445.004V103.709H443.637V110.709C443.637 112.131 443.181 113.231 442.27 114.009C441.359 114.787 440.054 115.176 438.354 115.176ZM438.42 108.576C439.187 108.576 439.787 108.364 440.22 107.942C440.654 107.52 440.87 106.942 440.87 106.209V105.509C440.87 104.787 440.648 104.22 440.204 103.809C439.77 103.387 439.176 103.176 438.42 103.176C437.609 103.176 436.976 103.414 436.52 103.892C436.076 104.37 435.854 105.037 435.854 105.892C435.854 106.748 436.076 107.409 436.52 107.876C436.976 108.342 437.609 108.576 438.42 108.576ZM446.145 110.976V96.9756H448.911V102.409H448.978C449.3 101.876 449.734 101.476 450.278 101.209C450.822 100.931 451.467 100.792 452.211 100.792C453.467 100.792 454.461 101.176 455.195 101.942C455.939 102.698 456.311 103.714 456.311 104.992V110.976H453.545V105.509C453.545 104.776 453.345 104.22 452.945 103.842C452.556 103.453 451.984 103.259 451.228 103.259C450.472 103.259 449.895 103.453 449.495 103.842C449.106 104.22 448.911 104.776 448.911 105.509V110.976H446.145ZM461.194 110.976C460.483 110.976 459.927 110.798 459.527 110.442C459.138 110.076 458.944 109.52 458.944 108.776V103.142H457.227V100.976H458.977V97.9756H461.677V100.976H463.994V103.142H461.71V108.809H464.227V110.976H461.194Z" fill="#F5F2EA"/>
<g filter="url(#filter0_d_58_521)">
<rect x="207" y="155" width="106.488" height="106.488" rx="53.2441" fill="#F5F2EA"/>
<path d="M295.947 198.953C295.92 198.935 295.888 198.92 295.856 198.911C295.825 198.902 295.787 198.897 295.75 198.897C295.687 198.897 295.606 198.913 295.514 198.947C295.266 199.035 294.923 199.232 294.539 199.479C294.156 199.726 293.731 200.025 293.318 200.317C293.267 200.353 293.216 200.39 293.165 200.426C293.081 200.485 293 200.544 292.918 200.602C292.882 200.627 292.846 200.652 292.811 200.677C292.536 200.872 292.278 201.051 292.059 201.194C292.02 201.219 291.981 201.245 291.945 201.268C291.836 201.338 291.737 201.395 291.654 201.44C291.514 201.513 291.375 201.579 291.237 201.647C291.131 201.699 291.025 201.749 290.918 201.798C290.387 202.04 289.857 202.245 289.327 202.408C289.133 202.467 288.939 202.523 288.745 202.571C287.585 202.865 286.421 202.978 285.233 202.928C285.015 202.919 284.795 202.903 284.574 202.883C284.216 202.851 283.855 202.804 283.491 202.743C283.062 202.672 282.626 202.582 282.188 202.475C282.171 202.471 282.151 202.466 282.127 202.459C282.127 202.459 282.125 202.459 282.124 202.459C282.099 202.451 282.071 202.444 282.039 202.435C281.591 202.306 280.527 201.968 280.346 201.798C280.346 201.798 280.346 201.798 280.344 201.794L280.489 201.554C280.527 201.558 280.568 201.565 280.607 201.569V201.565C280.607 201.565 280.616 201.565 280.62 201.565C281.052 201.699 281.5 201.733 281.961 201.864C282.605 202.047 283.251 202.26 283.909 202.356C283.988 202.369 284.066 202.378 284.143 202.385C284.78 202.448 285.43 202.448 286.088 202.39C286.308 202.371 286.526 202.346 286.747 202.315C286.858 202.299 286.967 202.283 287.078 202.263C287.519 202.188 287.958 202.09 288.398 201.968C288.507 201.937 288.616 201.905 288.725 201.873C288.943 201.807 289.162 201.735 289.377 201.658C289.702 201.542 290.023 201.415 290.342 201.277C290.872 201.046 291.392 200.783 291.895 200.492C292.197 200.319 292.492 200.134 292.781 199.941C293.262 199.619 293.725 199.27 294.161 198.897C294.508 198.602 294.783 198.372 294.931 198.056C294.96 197.993 294.986 197.928 295.005 197.857C295.028 197.771 295.042 197.678 295.046 197.576C295.052 197.479 295.048 197.373 295.036 197.257C295.023 197.13 295 196.994 294.964 196.84C294.93 196.691 294.884 196.577 294.831 196.492C294.804 196.449 294.775 196.415 294.743 196.387C294.712 196.358 294.68 196.337 294.646 196.32C294.594 196.297 294.539 196.286 294.483 196.286C294.407 196.286 294.328 196.308 294.246 196.342C294.206 196.36 294.164 196.38 294.124 196.405C294.104 196.417 294.084 196.43 294.062 196.442C293.989 196.491 293.916 196.548 293.845 196.609C293.83 196.623 293.812 196.637 293.797 196.652C293.679 196.759 293.57 196.876 293.478 196.987C293.455 197.013 293.433 197.04 293.413 197.065C293.386 197.099 293.361 197.133 293.338 197.164C292.854 197.826 292.652 198.378 292.175 198.949C292.102 199.037 292.021 199.124 291.934 199.214C291.889 199.259 291.843 199.304 291.794 199.348C291.694 199.441 291.592 199.533 291.489 199.62C291.444 199.66 291.398 199.696 291.352 199.733C291.297 199.778 291.244 199.823 291.19 199.866C291.127 199.916 291.063 199.964 291 200.013C290.971 200.034 290.941 200.057 290.911 200.079C289.986 200.763 288.979 201.261 287.931 201.56C287.906 201.567 287.883 201.574 287.859 201.579C287.779 201.601 287.7 201.622 287.619 201.642C287.57 201.655 287.523 201.665 287.474 201.676C287.409 201.69 287.343 201.705 287.279 201.719C287.21 201.733 287.141 201.746 287.07 201.758C287.02 201.767 286.97 201.776 286.92 201.785C286.892 201.789 286.864 201.792 286.836 201.798C286.72 201.816 286.605 201.83 286.489 201.844C286.449 201.85 286.407 201.852 286.367 201.855C286.263 201.866 286.158 201.873 286.055 201.88C286.012 201.882 285.969 201.884 285.926 201.887C285.822 201.893 285.719 201.895 285.615 201.896C285.574 201.896 285.532 201.896 285.49 201.896C285.383 201.896 285.275 201.895 285.169 201.889C285.131 201.889 285.094 201.887 285.058 201.886C284.942 201.88 284.825 201.871 284.709 201.862C284.682 201.86 284.653 201.859 284.626 201.855C284.485 201.843 284.346 201.825 284.206 201.807C284.204 201.807 284.199 201.807 284.196 201.807C283.899 201.766 283.605 201.708 283.312 201.64C283.296 201.637 283.281 201.633 283.266 201.628C283.138 201.597 283.01 201.563 282.882 201.527C282.851 201.518 282.82 201.51 282.789 201.501C282.677 201.468 282.565 201.433 282.453 201.397C282.417 201.384 282.381 201.373 282.345 201.361C282.237 201.323 282.13 201.286 282.022 201.246C281.986 201.234 281.951 201.219 281.916 201.205C281.806 201.162 281.697 201.117 281.588 201.073C281.556 201.06 281.526 201.046 281.495 201.033C281.375 200.981 281.256 200.926 281.137 200.87C281.117 200.861 281.098 200.852 281.078 200.843C280.939 200.775 280.801 200.706 280.663 200.632C280.56 200.577 280.357 200.399 280.241 200.396C280.232 200.39 280.222 200.385 280.214 200.38C280.097 200.31 279.981 200.24 279.864 200.167C279.797 200.124 279.729 200.079 279.663 200.034C279.616 200.002 279.567 199.971 279.52 199.939C279.332 199.81 278.23 198.951 278.5 198.591C278.5 198.591 278.5 198.591 278.501 198.591C278.503 198.591 278.504 198.591 278.506 198.591C278.603 198.629 278.7 198.673 278.794 198.725C278.803 198.731 278.813 198.736 278.822 198.741C279.455 199.092 280.022 199.68 280.771 199.561C280.822 199.554 280.874 199.543 280.927 199.527C281.199 199.45 281.467 199.284 281.73 199.076C281.861 198.972 281.99 198.858 282.117 198.74C282.749 198.147 283.314 197.445 283.714 197.391C283.743 197.388 283.77 197.386 283.799 197.384C283.827 197.382 283.856 197.384 283.885 197.384C283.913 197.384 283.944 197.388 283.972 197.391C284.031 197.398 284.092 197.407 284.15 197.416C284.241 197.431 284.33 197.443 284.42 197.447C284.659 197.454 284.893 197.389 285.097 197.065C285.189 196.92 285.311 196.598 285.427 196.226C285.452 196.147 285.475 196.066 285.499 195.986C285.526 195.889 285.554 195.792 285.578 195.696C285.6 195.615 285.62 195.534 285.638 195.456C285.653 195.393 285.667 195.33 285.68 195.269C285.706 195.148 285.727 195.033 285.743 194.929C285.752 194.877 285.758 194.829 285.763 194.782C285.768 194.738 285.772 194.695 285.773 194.657C285.775 194.619 285.775 194.585 285.773 194.555C285.763 194.412 285.716 194.279 285.64 194.159C285.621 194.129 285.6 194.1 285.577 194.072C285.541 194.027 285.501 193.984 285.457 193.943C285.434 193.919 285.41 193.898 285.384 193.876C285.307 193.81 285.219 193.747 285.124 193.688C285.088 193.665 285.05 193.644 285.012 193.622C284.666 193.427 284.242 193.273 283.836 193.139C283.791 193.124 283.745 193.11 283.701 193.096C283.21 192.938 282.757 192.807 282.512 192.668C282.21 192.496 281.963 192.018 281.768 191.889C281.426 191.665 279.247 190.988 279.067 191.219C279.073 191.459 279.063 191.731 279.031 191.996C279.008 192.195 278.973 192.392 278.922 192.569C278.905 192.628 278.888 192.686 278.868 192.741C278.84 192.816 278.817 192.906 278.78 192.952C278.743 192.999 278.694 193.006 278.613 192.92C278.592 192.897 278.576 192.671 278.56 192.383C278.534 191.901 278.51 191.242 278.471 191.044C278.421 190.793 278.193 190.139 277.974 189.704C277.954 189.665 277.934 189.627 277.915 189.591C277.877 189.52 277.838 189.457 277.802 189.409C277.766 189.359 277.732 189.323 277.701 189.301C277.562 189.208 277.429 189.235 277.301 189.335C277.161 189.446 277.028 189.649 276.903 189.885C276.858 189.969 276.814 190.059 276.771 190.148C276.738 190.22 276.705 190.292 276.672 190.363C276.643 190.426 276.616 190.49 276.587 190.551C276.571 190.587 276.555 190.623 276.539 190.659C276.404 190.965 276.281 191.235 276.17 191.364C275.996 191.568 275.683 191.731 275.367 191.891C275.306 191.921 275.245 191.951 275.184 191.982C275.106 192.021 275.03 192.061 274.958 192.1C274.932 192.114 274.908 192.129 274.883 192.143C274.797 192.193 274.715 192.245 274.645 192.299C274.398 192.489 274.161 192.727 273.933 192.997C273.38 193.654 272.873 194.505 272.381 195.328C271.992 195.98 271.614 196.612 271.231 197.115C271.229 197.133 271.231 197.149 271.232 197.167C271.238 197.201 271.254 197.237 271.278 197.271C271.413 197.472 271.8 197.656 271.985 197.748C271.996 197.753 272.006 197.758 272.015 197.764C272.024 197.767 272.034 197.773 272.041 197.776C272.152 197.833 272.264 197.884 272.376 197.932C272.403 197.945 272.432 197.955 272.459 197.968C272.568 198.013 272.679 198.056 272.791 198.095C272.792 198.095 272.795 198.095 272.796 198.097C272.913 198.138 273.029 198.174 273.147 198.208C273.174 198.215 273.201 198.224 273.229 198.231C273.336 198.261 273.444 198.29 273.552 198.317C273.559 198.317 273.566 198.321 273.572 198.322C273.572 198.322 273.573 198.322 273.575 198.322C273.744 198.364 273.914 198.401 274.085 198.437C274.141 198.466 274.185 198.507 274.213 198.562C274.214 198.571 274.214 198.582 274.213 198.591C274.182 198.784 273.598 198.947 273.388 198.992C273.388 198.992 273.385 198.992 273.384 198.992C273.371 198.996 273.359 198.997 273.349 198.999C273.348 198.999 273.347 198.999 273.345 198.999C273.336 198.999 273.328 199.003 273.324 199.003C273.166 199.022 273.003 199.031 272.837 199.033C272.506 199.035 272.164 199.008 271.82 198.981C271.652 198.969 271.484 198.956 271.316 198.945C271.225 198.94 271.135 198.936 271.044 198.935C270.872 198.929 270.702 198.931 270.533 198.942C270.35 198.954 270.169 198.978 269.993 199.017C269.862 199.046 269.733 199.085 269.606 199.133C269.568 199.148 269.529 199.166 269.49 199.182C269.434 199.207 269.378 199.232 269.323 199.261C269.246 199.302 269.174 199.361 269.104 199.425C269.053 199.472 269.006 199.52 268.959 199.569C268.949 199.579 268.938 199.588 268.928 199.599C268.815 199.719 268.706 199.837 268.592 199.909C268.406 200.029 268.212 200.138 268.019 200.247C267.68 200.439 267.338 200.625 267.014 200.847C267.01 200.854 267.01 200.861 267.011 200.872C267.02 200.922 267.096 201.012 267.218 201.13C267.242 201.153 267.268 201.178 267.297 201.203C267.38 201.28 267.479 201.364 267.59 201.456C267.663 201.517 267.741 201.579 267.822 201.644C267.945 201.741 268.074 201.841 268.207 201.943C268.96 202.516 269.819 203.11 269.973 203.18C270.011 203.198 270.052 203.214 270.092 203.23C270.172 203.263 270.256 203.289 270.34 203.314C270.383 203.327 270.425 203.339 270.468 203.35C270.727 203.42 270.994 203.479 271.242 203.565C271.284 203.579 271.324 203.596 271.364 203.612C271.525 203.678 271.676 203.758 271.808 203.87C271.841 203.898 271.873 203.927 271.903 203.959C271.102 204.238 270.329 204.315 269.563 204.21C268.967 204.127 268.377 203.936 267.778 203.646C267.623 203.57 267.476 203.499 267.338 203.429C267.27 203.395 267.202 203.361 267.136 203.327C267.051 203.284 266.971 203.243 266.892 203.202C266.787 203.148 266.686 203.096 266.59 203.046C266.365 202.929 266.159 202.826 265.965 202.734C265.336 202.439 264.825 202.279 264.102 202.288C263.936 202.29 263.758 202.301 263.565 202.321C263.501 202.328 263.435 202.335 263.367 202.344C263.231 202.362 263.088 202.383 262.936 202.41C262.708 202.45 262.461 202.498 262.191 202.557L260.193 203.182C260.459 203.517 260.721 203.868 260.984 204.226C261.335 204.704 261.688 205.193 262.051 205.669C262.234 205.907 262.418 206.142 262.606 206.369C263.265 207.166 263.972 207.882 264.775 208.378C264.848 208.423 265.467 208.657 265.939 208.915C265.991 208.944 266.043 208.973 266.09 209.001C266.187 209.059 266.27 209.118 266.336 209.175C266.467 209.29 266.524 209.397 266.444 209.483C265.754 209.456 264.914 209.483 264.24 209.324C262.423 208.897 261.138 207.3 259.745 205.907C258.909 205.073 258.033 204.312 256.98 203.921C256.741 203.834 256.516 203.767 256.298 203.719C256.224 203.703 256.154 203.689 256.082 203.676C255.657 203.601 255.258 203.581 254.848 203.57C254.781 203.569 254.712 203.567 254.643 203.565C254.505 203.562 254.366 203.558 254.224 203.553C254.01 203.544 253.788 203.531 253.556 203.508L249.616 203.107C251.016 204.625 252.208 206.647 253.691 208.074C253.765 208.145 253.84 208.215 253.915 208.283C254.218 208.555 254.532 208.803 254.864 209.016C254.947 209.069 255.031 209.119 255.115 209.168C255.625 209.46 256.175 209.667 256.779 209.762C256.652 209.99 256.391 210.108 256.096 210.163C256.055 210.172 256.012 210.178 255.969 210.185C255.839 210.203 255.706 210.21 255.579 210.212C255.367 210.214 255.167 210.199 255.019 210.183C254.043 210.085 253.185 209.61 252.371 208.964C252.28 208.892 252.19 208.819 252.101 208.742C250.13 207.075 248.363 204.509 245.666 203.988C245.426 203.941 245.211 203.952 245.008 203.991C244.754 204.04 244.518 204.133 244.274 204.219C244.234 204.233 244.194 204.246 244.154 204.26C243.993 204.312 243.825 204.357 243.645 204.38C243.41 204.408 243.105 204.373 242.88 204.457C242.848 204.459 242.818 204.462 242.786 204.464C242.786 204.464 242.785 204.464 242.783 204.464C242.572 204.439 242.334 204.496 242.12 204.507C241.715 204.527 241.31 204.537 240.905 204.552C240.692 204.559 240.481 204.568 240.268 204.58C240.244 204.58 240.218 204.584 240.194 204.586C240.143 204.589 240.093 204.593 240.043 204.596C239.998 204.6 239.954 204.604 239.909 204.607C239.873 204.611 239.837 204.613 239.802 204.616C239.743 204.622 239.682 204.629 239.623 204.636C239.599 204.639 239.576 204.641 239.552 204.643C239.476 204.652 239.401 204.663 239.326 204.673C239.316 204.673 239.307 204.675 239.297 204.677C239.214 204.69 239.131 204.704 239.048 204.72C239.019 204.725 238.989 204.733 238.96 204.738C238.907 204.749 238.854 204.759 238.802 204.772C238.792 204.774 238.782 204.776 238.772 204.779C238.747 204.784 238.723 204.792 238.698 204.799C238.647 204.811 238.595 204.826 238.543 204.84C238.529 204.844 238.516 204.847 238.502 204.853C237.649 205.098 236.761 205.56 235.675 206.452C235.632 206.487 235.589 206.521 235.546 206.557C235.513 206.586 235.478 206.614 235.445 206.643C235.358 206.718 235.27 206.794 235.184 206.871C234.976 207.057 234.772 207.255 234.573 207.463C234.5 207.54 234.427 207.619 234.355 207.698C234.2 207.868 234.046 208.043 233.894 208.222C233.702 208.45 233.511 208.681 233.32 208.914C233.163 209.105 233.005 209.299 232.847 209.488C232.784 209.565 232.721 209.641 232.657 209.716C232.531 209.866 232.403 210.017 232.274 210.162C231.178 211.402 229.992 212.421 228.407 212.464C228.126 212.471 227.607 212.409 227.12 212.328C227.013 212.31 226.905 212.292 226.803 212.273C226.751 212.264 226.702 212.253 226.654 212.244C226.509 212.215 226.375 212.187 226.266 212.16C226.23 212.151 226.195 212.142 226.165 212.133C225.997 212.086 225.838 212.026 225.684 211.958C225.53 211.889 225.381 211.816 225.233 211.746C224.936 211.607 224.643 211.485 224.317 211.462C224.304 211.462 224.294 211.465 224.285 211.474C224.241 211.513 224.239 211.642 224.249 211.73C224.254 211.766 224.259 211.795 224.264 211.811C224.284 211.87 224.334 211.941 224.406 212.022C224.459 212.083 224.526 212.149 224.601 212.217C224.627 212.24 224.653 212.264 224.68 212.287C224.789 212.382 224.914 212.482 225.049 212.584C225.082 212.609 225.117 212.636 225.151 212.661C225.22 212.713 225.292 212.763 225.364 212.815C225.4 212.84 225.436 212.865 225.473 212.892C225.618 212.992 225.767 213.093 225.911 213.184C225.947 213.207 225.983 213.231 226.019 213.252C226.125 213.318 226.227 213.383 226.325 213.44C226.422 213.497 226.511 213.549 226.593 213.594C226.73 213.668 226.842 213.723 226.916 213.75C228.327 214.258 229.502 214.16 230.537 213.718C230.602 213.691 230.667 213.66 230.73 213.63C230.984 213.508 231.231 213.367 231.471 213.209C231.59 213.13 231.709 213.046 231.826 212.96C232.058 212.787 232.287 212.599 232.509 212.402C232.565 212.351 232.62 212.301 232.676 212.251C232.841 212.099 233.005 211.941 233.167 211.78C233.222 211.727 233.275 211.673 233.328 211.619C233.489 211.456 233.648 211.29 233.806 211.123C233.913 211.012 234.018 210.899 234.122 210.788C234.227 210.677 234.332 210.564 234.438 210.453C234.701 210.176 234.964 209.9 235.23 209.635C235.549 209.318 235.873 209.017 236.208 208.747C236.264 208.702 236.32 208.657 236.376 208.615C237.107 208.05 237.89 207.637 238.775 207.515C239.161 207.461 239.616 207.474 240.069 207.469C240.375 207.465 240.678 207.451 240.959 207.408C241.094 207.386 241.226 207.361 241.348 207.324C241.624 207.236 241.886 206.826 242.092 206.598C242.238 206.439 242.368 206.303 242.46 206.244C242.487 206.231 242.516 206.224 242.543 206.215C242.551 206.238 242.555 206.264 242.556 206.289C242.519 206.48 242.479 206.672 242.436 206.863C242.396 207.041 242.354 207.216 242.311 207.39C242.306 207.409 242.302 207.427 242.296 207.447C242.255 207.615 242.209 207.782 242.163 207.947C242.156 207.973 242.147 208.002 242.14 208.029C242.094 208.192 242.045 208.353 241.996 208.512C241.986 208.543 241.978 208.572 241.968 208.602C241.917 208.761 241.864 208.921 241.81 209.078C241.799 209.105 241.791 209.132 241.781 209.159C241.723 209.322 241.664 209.483 241.601 209.642C241.596 209.655 241.591 209.667 241.585 209.682C241.522 209.843 241.456 210.002 241.387 210.16C241.382 210.172 241.377 210.185 241.371 210.197C240.672 211.795 239.679 213.206 238.394 214.065C238.394 214.065 238.394 214.065 238.393 214.065C238.311 214.121 238.226 214.172 238.141 214.223C238.128 214.23 238.115 214.239 238.101 214.246C238.009 214.3 237.916 214.352 237.822 214.398C236.742 214.946 235.664 215.052 234.578 215.395C234.506 215.419 234.433 215.442 234.361 215.467C234.278 215.496 234.199 215.523 234.122 215.551C233.97 215.607 233.829 215.66 233.7 215.728C233.669 215.745 233.637 215.762 233.605 215.782C233.424 215.891 233.268 216.033 233.13 216.246C233.12 216.26 233.111 216.276 233.101 216.292C233.038 216.396 232.979 216.515 232.923 216.654C232.899 216.715 232.871 216.794 232.841 216.889C232.795 217.03 232.744 217.207 232.686 217.413C232.61 217.687 232.525 218.011 232.435 218.366C232.39 218.543 232.344 218.729 232.297 218.921C232.156 219.496 232.011 220.123 231.872 220.74C231.711 221.462 231.56 222.173 231.442 222.774C231.307 223.464 231.215 224.013 231.2 224.28C231.136 225.315 231.34 226.418 231.774 226.939C231.8 226.97 231.826 226.998 231.853 227.025C231.989 227.158 232.145 227.236 232.32 227.244C232.32 227.244 232.321 227.244 232.323 227.244C232.636 227.256 233.012 227.045 233.443 226.509L234.604 219.736C234.996 219.788 235.386 219.881 235.777 219.979C235.908 220.012 236.037 220.046 236.168 220.08C236.689 220.214 237.21 220.339 237.738 220.384C238.905 220.481 240.241 220.346 241.515 220.042C241.565 220.029 241.617 220.017 241.667 220.004C242.416 219.816 243.138 219.571 243.786 219.279C245.083 218.695 246.197 217.773 247.318 216.892C247.499 216.751 247.678 216.609 247.859 216.472C247.99 216.371 248.121 216.275 248.253 216.178C248.912 215.698 249.591 215.268 250.327 214.962C250.848 214.745 251.395 214.577 251.941 214.423C252.16 214.36 252.378 214.301 252.595 214.242C252.702 214.212 252.812 214.181 252.918 214.151C252.522 213.488 251.877 213.143 251.38 212.599C251.314 212.527 251.012 212.178 250.785 211.859C250.735 211.789 250.687 211.719 250.647 211.655C250.627 211.623 250.608 211.592 250.593 211.564C250.528 211.447 250.498 211.358 250.531 211.32C250.575 211.299 250.616 211.288 250.654 211.286C250.924 211.268 251.065 211.65 251.127 211.689C252.081 212.298 253.044 212.991 254.055 213.558C254.224 213.653 254.393 213.745 254.565 213.83C254.736 213.916 254.909 213.999 255.084 214.076C256.249 214.588 257.513 214.967 258.836 215.215C259.055 215.256 259.278 215.293 259.502 215.327C259.949 215.395 260.401 215.449 260.858 215.487C261.315 215.526 261.776 215.549 262.24 215.56C262.471 215.566 262.703 215.567 262.936 215.566C263.634 215.56 264.338 215.521 265.039 215.451C265.273 215.428 265.507 215.401 265.74 215.37C266.715 215.243 267.686 215.055 268.637 214.808C269.052 214.701 269.463 214.582 269.869 214.452C270.092 214.38 270.313 214.305 270.533 214.226C270.972 214.069 271.406 213.898 271.83 213.714C273.316 213.069 274.704 212.262 275.926 211.293C275.939 211.282 275.955 211.27 275.975 211.254C276.024 211.214 276.093 211.155 276.172 211.087C276.225 211.043 276.281 210.994 276.343 210.94C276.381 210.906 276.42 210.872 276.46 210.837C276.864 210.482 277.341 210.047 277.367 209.972L275.547 208.985C275.444 208.914 275.321 208.822 275.189 208.717C275.059 208.611 274.916 208.489 274.776 208.358C274.681 208.271 274.587 208.179 274.494 208.086C274.402 207.991 274.312 207.895 274.227 207.798C273.973 207.504 273.763 207.202 273.67 206.931C273.637 206.836 273.624 206.776 273.628 206.729C273.632 206.682 273.654 206.648 273.691 206.607C273.716 206.58 273.747 206.55 273.785 206.509C273.881 206.627 273.98 206.742 274.08 206.853C274.121 206.897 274.164 206.939 274.204 206.983C274.264 207.046 274.323 207.109 274.385 207.17C274.44 207.223 274.496 207.275 274.552 207.325C274.6 207.37 274.648 207.415 274.697 207.458C274.763 207.515 274.829 207.569 274.896 207.624C274.937 207.657 274.975 207.689 275.016 207.719C275.092 207.778 275.168 207.834 275.244 207.888C275.275 207.911 275.307 207.932 275.339 207.954C275.423 208.011 275.51 208.067 275.596 208.12C275.619 208.135 275.643 208.149 275.666 208.163C275.761 208.221 275.857 208.274 275.953 208.324C275.966 208.332 275.981 208.339 275.994 208.344C276.098 208.398 276.205 208.45 276.312 208.498C276.324 208.511 276.333 208.525 276.346 208.534C276.389 208.564 276.436 208.572 276.483 208.572C277.414 208.951 278.408 209.084 279.416 208.949C279.429 208.949 279.442 208.948 279.455 208.946C279.599 208.926 279.744 208.901 279.887 208.869C281.251 208.573 282.805 208.149 284.354 207.678C285.903 207.207 287.447 206.691 288.787 206.213C289.794 205.855 291.318 205.264 292.727 204.434C292.915 204.323 293.1 204.208 293.282 204.088C293.465 203.968 293.643 203.844 293.817 203.716C293.991 203.587 294.159 203.454 294.321 203.318C294.646 203.044 294.943 202.752 295.203 202.444C295.658 201.903 295.996 201.309 296.152 200.659C296.167 200.598 296.181 200.527 296.194 200.451C296.197 200.437 296.198 200.424 296.201 200.41C296.213 200.331 296.224 200.245 296.231 200.158C296.24 200.063 296.244 199.964 296.244 199.866C296.246 199.474 296.175 199.087 295.951 198.947L295.947 198.953Z" fill="#B98C25"/>
</g>
<rect x="0.5" y="69.4756" width="162.363" height="66.7653" rx="33.3826" fill="#CCA852"/>
<rect x="0.5" y="69.4756" width="162.363" height="66.7653" rx="33.3826" stroke="#CCA852"/>
<path d="M41.8063 99.1084C40.4285 99.1084 39.2229 98.8251 38.1896 98.2584C37.1674 97.6806 36.3729 96.8695 35.8063 95.8251C35.2396 94.7695 34.9563 93.5417 34.9563 92.1417C34.9563 90.7195 35.2396 89.4862 35.8063 88.4417C36.3729 87.3973 37.1674 86.5917 38.1896 86.0251C39.2229 85.4473 40.4285 85.1584 41.8063 85.1584C42.9174 85.1584 43.9007 85.3528 44.7563 85.7417C45.6229 86.1195 46.3285 86.664 46.8729 87.3751C47.4285 88.0862 47.7785 88.9362 47.9229 89.9251H44.9896C44.8674 89.2028 44.5229 88.6473 43.9563 88.2584C43.3896 87.8584 42.6729 87.6584 41.8063 87.6584C40.5618 87.6584 39.5785 88.0528 38.8563 88.8417C38.134 89.6306 37.7729 90.7306 37.7729 92.1417C37.7729 93.5417 38.134 94.6417 38.8563 95.4417C39.5785 96.2306 40.5618 96.6251 41.8063 96.6251C42.6729 96.6251 43.3896 96.4251 43.9563 96.0251C44.5229 95.6251 44.8674 95.064 44.9896 94.3417H47.9229C47.7785 95.3306 47.4285 96.1862 46.8729 96.9084C46.3285 97.6195 45.6229 98.164 44.7563 98.5417C43.9007 98.9195 42.9174 99.1084 41.8063 99.1084ZM53.6878 99.0584C52.5989 99.0584 51.6489 98.8473 50.8378 98.4251C50.0378 97.9917 49.4156 97.3862 48.9711 96.6084C48.5267 95.8306 48.3044 94.9084 48.3044 93.8417C48.3044 92.7862 48.5211 91.8695 48.9544 91.0917C49.3989 90.314 50.0267 89.714 50.8378 89.2917C51.6489 88.8695 52.6044 88.6584 53.7044 88.6584C54.7933 88.6584 55.7378 88.8695 56.5378 89.2917C57.3378 89.714 57.9544 90.314 58.3878 91.0917C58.8211 91.8695 59.0378 92.7917 59.0378 93.8584C59.0378 94.914 58.8211 95.8362 58.3878 96.6251C57.9544 97.4028 57.3322 98.0028 56.5211 98.4251C55.7211 98.8473 54.7767 99.0584 53.6878 99.0584ZM53.6878 96.6584C54.5211 96.6584 55.16 96.4084 55.6044 95.9084C56.0489 95.3973 56.2711 94.7084 56.2711 93.8417C56.2711 92.9751 56.0489 92.2973 55.6044 91.8084C55.16 91.3084 54.5211 91.0584 53.6878 91.0584C52.8433 91.0584 52.1933 91.3084 51.7378 91.8084C51.2933 92.2973 51.0711 92.9751 51.0711 93.8417C51.0711 94.7084 51.2933 95.3973 51.7378 95.9084C52.1933 96.4084 52.8433 96.6584 53.6878 96.6584ZM61.157 98.8584V91.5917H59.7904V88.8584H62.5904V90.8251H63.2904C63.557 90.1251 63.9793 89.6028 64.557 89.2584C65.1348 88.914 65.7848 88.7417 66.507 88.7417H67.357V91.1417H66.3904C65.5237 91.1417 64.8848 91.3862 64.4737 91.8751C64.0737 92.364 63.8737 93.0084 63.8737 93.8084V98.8584H61.157ZM69.1813 102.858V91.5917H67.8146V88.8584H70.6146V90.4917H71.3146C71.6702 89.914 72.1424 89.464 72.7313 89.1417C73.3313 88.8195 74.0535 88.6584 74.8979 88.6584C75.9313 88.6584 76.8035 88.8751 77.5146 89.3084C78.2257 89.7417 78.7646 90.3473 79.1313 91.1251C79.4979 91.9028 79.6813 92.814 79.6813 93.8584C79.6813 94.9028 79.5035 95.8195 79.1479 96.6084C78.7924 97.3862 78.2757 97.9917 77.5979 98.4251C76.9202 98.8473 76.0979 99.0584 75.1313 99.0584C74.3979 99.0584 73.7702 98.9251 73.2479 98.6584C72.7257 98.3806 72.3146 97.9917 72.0146 97.4917H71.9479V102.858H69.1813ZM74.3813 96.6584C75.2257 96.6584 75.859 96.4084 76.2813 95.9084C76.7035 95.4084 76.9146 94.7251 76.9146 93.8584C76.9146 92.9917 76.7035 92.3084 76.2813 91.8084C75.859 91.3084 75.2257 91.0584 74.3813 91.0584C73.6368 91.0584 73.0424 91.2695 72.5979 91.6917C72.1646 92.1028 71.9479 92.6751 71.9479 93.4084V94.3084C71.9479 95.0417 72.1646 95.6195 72.5979 96.0417C73.0424 96.4528 73.6368 96.6584 74.3813 96.6584ZM85.769 99.0584C84.6801 99.0584 83.7301 98.8473 82.919 98.4251C82.119 97.9917 81.4968 97.3862 81.0524 96.6084C80.6079 95.8306 80.3857 94.9084 80.3857 93.8417C80.3857 92.7862 80.6024 91.8695 81.0357 91.0917C81.4801 90.314 82.1079 89.714 82.919 89.2917C83.7301 88.8695 84.6857 88.6584 85.7857 88.6584C86.8746 88.6584 87.819 88.8695 88.619 89.2917C89.419 89.714 90.0357 90.314 90.469 91.0917C90.9024 91.8695 91.119 92.7917 91.119 93.8584C91.119 94.914 90.9024 95.8362 90.469 96.6251C90.0357 97.4028 89.4135 98.0028 88.6024 98.4251C87.8024 98.8473 86.8579 99.0584 85.769 99.0584ZM85.769 96.6584C86.6024 96.6584 87.2412 96.4084 87.6857 95.9084C88.1301 95.3973 88.3524 94.7084 88.3524 93.8417C88.3524 92.9751 88.1301 92.2973 87.6857 91.8084C87.2412 91.3084 86.6024 91.0584 85.769 91.0584C84.9246 91.0584 84.2746 91.3084 83.819 91.8084C83.3746 92.2973 83.1524 92.9751 83.1524 93.8417C83.1524 94.7084 83.3746 95.3973 83.819 95.9084C84.2746 96.4084 84.9246 96.6584 85.769 96.6584ZM93.2383 98.8584V91.5917H91.8716V88.8584H94.6716V90.8251H95.3716C95.6383 90.1251 96.0605 89.6028 96.6383 89.2584C97.2161 88.914 97.8661 88.7417 98.5883 88.7417H99.4383V91.1417H98.4716C97.605 91.1417 96.9661 91.3862 96.555 91.8751C96.155 92.364 95.955 93.0084 95.955 93.8084V98.8584H93.2383ZM103.447 99.0417C102.269 99.0417 101.347 98.7584 100.68 98.1917C100.014 97.614 99.6805 96.8584 99.6805 95.9251C99.6805 94.9362 100.025 94.1751 100.714 93.6417C101.403 93.1084 102.392 92.8417 103.68 92.8417H106.547V92.4584C106.547 91.3806 105.903 90.8417 104.614 90.8417C103.492 90.8417 102.814 91.2306 102.58 92.0084H99.8305C100.053 90.9084 100.569 90.0751 101.38 89.5084C102.192 88.9417 103.269 88.6584 104.614 88.6584C106.103 88.6584 107.236 88.9917 108.014 89.6584C108.803 90.3251 109.197 91.2973 109.197 92.5751V96.1251H110.497V98.8584H107.697V97.2251H106.997C106.653 97.8028 106.192 98.2528 105.614 98.5751C105.036 98.8862 104.314 99.0417 103.447 99.0417ZM103.864 96.9417C104.386 96.9417 104.847 96.8473 105.247 96.6584C105.647 96.4695 105.964 96.2195 106.197 95.9084C106.43 95.5862 106.547 95.2251 106.547 94.8251V94.6751H103.814C102.814 94.6751 102.314 95.0473 102.314 95.7917C102.314 96.1584 102.453 96.4417 102.73 96.6417C103.008 96.8417 103.386 96.9417 103.864 96.9417ZM114.816 98.8584C114.105 98.8584 113.55 98.6806 113.15 98.3251C112.761 97.9584 112.566 97.4028 112.566 96.6584V91.0251H110.85V88.8584H112.6V85.8584H115.3V88.8584H117.616V91.0251H115.333V96.6917H117.85V98.8584H114.816ZM123.712 99.0584C122.634 99.0584 121.695 98.8473 120.895 98.4251C120.095 97.9917 119.478 97.3862 119.045 96.6084C118.612 95.8195 118.395 94.8917 118.395 93.8251C118.395 92.7584 118.606 91.8417 119.028 91.0751C119.451 90.2973 120.051 89.7028 120.828 89.2917C121.617 88.8695 122.545 88.6584 123.612 88.6584C124.656 88.6584 125.551 88.8584 126.295 89.2584C127.051 89.6584 127.628 90.2306 128.028 90.9751C128.428 91.7195 128.628 92.6084 128.628 93.6417V94.5751H121.045C121.156 95.3195 121.44 95.8862 121.895 96.2751C122.351 96.664 122.951 96.8584 123.695 96.8584C124.284 96.8584 124.751 96.7584 125.095 96.5584C125.44 96.3584 125.684 96.0528 125.828 95.6417H128.595C128.373 96.7084 127.834 97.5473 126.978 98.1584C126.123 98.7584 125.034 99.0584 123.712 99.0584ZM121.112 92.7417H125.978C125.89 92.1084 125.645 91.6362 125.245 91.3251C124.845 91.0028 124.306 90.8417 123.628 90.8417C122.951 90.8417 122.395 91.0028 121.962 91.3251C121.54 91.6473 121.256 92.1195 121.112 92.7417ZM48.8353 123.058C47.0242 123.058 45.5797 122.664 44.502 121.875C43.4242 121.075 42.8353 119.97 42.7353 118.558H45.6353C45.7353 119.292 46.0631 119.847 46.6186 120.225C47.1853 120.592 47.9631 120.775 48.952 120.775C49.8297 120.775 50.4909 120.636 50.9353 120.358C51.3797 120.07 51.602 119.647 51.602 119.092C51.602 118.658 51.4575 118.314 51.1686 118.058C50.8909 117.803 50.4353 117.608 49.802 117.475L47.0186 116.908C45.7631 116.642 44.8242 116.203 44.202 115.592C43.5797 114.97 43.2686 114.164 43.2686 113.175C43.2686 111.92 43.7409 110.936 44.6853 110.225C45.6409 109.514 46.9353 109.158 48.5686 109.158C50.2242 109.158 51.5575 109.531 52.5686 110.275C53.5797 111.02 54.1464 112.058 54.2686 113.392H51.3686C51.0464 112.036 50.0631 111.358 48.4186 111.358C47.6742 111.358 47.0909 111.492 46.6686 111.758C46.2464 112.025 46.0353 112.408 46.0353 112.908C46.0353 113.675 46.5853 114.17 47.6853 114.392L50.5853 114.992C51.8964 115.258 52.852 115.708 53.452 116.342C54.0631 116.964 54.3686 117.808 54.3686 118.875C54.3686 120.197 53.8853 121.225 52.9186 121.958C51.9631 122.692 50.602 123.058 48.8353 123.058ZM60.4817 123.058C59.4039 123.058 58.465 122.847 57.665 122.425C56.865 121.992 56.2483 121.386 55.815 120.608C55.3817 119.82 55.165 118.892 55.165 117.825C55.165 116.758 55.3761 115.842 55.7983 115.075C56.2205 114.297 56.8205 113.703 57.5983 113.292C58.3872 112.87 59.315 112.658 60.3817 112.658C61.4261 112.658 62.3205 112.858 63.065 113.258C63.8205 113.658 64.3983 114.231 64.7983 114.975C65.1983 115.72 65.3983 116.608 65.3983 117.642V118.575H57.815C57.9261 119.32 58.2094 119.886 58.665 120.275C59.1205 120.664 59.7205 120.858 60.465 120.858C61.0539 120.858 61.5205 120.758 61.865 120.558C62.2094 120.358 62.4539 120.053 62.5983 119.642H65.365C65.1428 120.708 64.6039 121.547 63.7483 122.158C62.8928 122.758 61.8039 123.058 60.4817 123.058ZM57.8817 116.742H62.7483C62.6594 116.108 62.415 115.636 62.015 115.325C61.615 115.003 61.0761 114.842 60.3983 114.842C59.7205 114.842 59.165 115.003 58.7317 115.325C58.3094 115.647 58.0261 116.12 57.8817 116.742ZM67.5098 122.858V115.592H66.1431V112.858H68.9431V114.825H69.6431C69.9098 114.125 70.332 113.603 70.9098 113.258C71.4876 112.914 72.1376 112.742 72.8598 112.742H73.7098V115.142H72.7431C71.8765 115.142 71.2376 115.386 70.8265 115.875C70.4265 116.364 70.2265 117.008 70.2265 117.808V122.858H67.5098ZM78.1007 122.858L73.8173 112.858H76.734L79.534 119.658H79.6007L82.3173 112.858H85.184L80.9007 122.858H78.1007ZM86.0298 122.858V112.858H88.7965V122.858H86.0298ZM87.4132 111.875C86.9909 111.875 86.6298 111.731 86.3298 111.442C86.0409 111.142 85.8965 110.781 85.8965 110.358C85.8965 109.936 86.0409 109.581 86.3298 109.292C86.6298 108.992 86.9909 108.842 87.4132 108.842C87.8354 108.842 88.1909 108.992 88.4798 109.292C88.7798 109.581 88.9298 109.936 88.9298 110.358C88.9298 110.781 88.7798 111.142 88.4798 111.442C88.1909 111.731 87.8354 111.875 87.4132 111.875ZM95.3218 123.058C94.2773 123.058 93.3607 122.847 92.5718 122.425C91.794 121.992 91.1829 121.386 90.7384 120.608C90.3051 119.831 90.0884 118.914 90.0884 117.858C90.0884 116.803 90.3051 115.886 90.7384 115.108C91.1718 114.331 91.7829 113.731 92.5718 113.308C93.3607 112.875 94.2773 112.658 95.3218 112.658C96.644 112.658 97.7329 112.992 98.5884 113.658C99.444 114.325 99.9829 115.242 100.205 116.408H97.4218C97.2773 115.975 97.0273 115.642 96.6718 115.408C96.3162 115.175 95.8662 115.058 95.3218 115.058C94.5773 115.058 93.9773 115.303 93.5218 115.792C93.0773 116.281 92.8551 116.97 92.8551 117.858C92.8551 118.747 93.0829 119.436 93.5384 119.925C93.994 120.414 94.5884 120.658 95.3218 120.658C96.4995 120.658 97.2162 120.158 97.4718 119.158H100.255C100.055 120.381 99.5273 121.336 98.6718 122.025C97.8162 122.714 96.6995 123.058 95.3218 123.058ZM105.845 123.058C104.767 123.058 103.828 122.847 103.028 122.425C102.228 121.992 101.612 121.386 101.178 120.608C100.745 119.82 100.528 118.892 100.528 117.825C100.528 116.758 100.739 115.842 101.162 115.075C101.584 114.297 102.184 113.703 102.962 113.292C103.75 112.87 104.678 112.658 105.745 112.658C106.789 112.658 107.684 112.858 108.428 113.258C109.184 113.658 109.762 114.231 110.162 114.975C110.562 115.72 110.762 116.608 110.762 117.642V118.575H103.178C103.289 119.32 103.573 119.886 104.028 120.275C104.484 120.664 105.084 120.858 105.828 120.858C106.417 120.858 106.884 120.758 107.228 120.558C107.573 120.358 107.817 120.053 107.962 119.642H110.728C110.506 120.708 109.967 121.547 109.112 122.158C108.256 122.758 107.167 123.058 105.845 123.058ZM103.245 116.742H108.112C108.023 116.108 107.778 115.636 107.378 115.325C106.978 115.003 106.439 114.842 105.762 114.842C105.084 114.842 104.528 115.003 104.095 115.325C103.673 115.647 103.389 116.12 103.245 116.742ZM116.39 123.058C114.923 123.058 113.762 122.753 112.906 122.142C112.062 121.52 111.606 120.653 111.54 119.542H114.206C114.295 120.02 114.523 120.375 114.89 120.608C115.268 120.842 115.806 120.958 116.506 120.958C117.651 120.958 118.223 120.642 118.223 120.008C118.223 119.753 118.134 119.553 117.956 119.408C117.79 119.253 117.506 119.136 117.106 119.058L114.873 118.625C112.873 118.236 111.873 117.297 111.873 115.808C111.873 114.853 112.256 114.092 113.023 113.525C113.79 112.947 114.851 112.658 116.206 112.658C117.551 112.658 118.618 112.953 119.406 113.542C120.195 114.131 120.629 114.953 120.706 116.008H118.04C117.918 115.542 117.701 115.203 117.39 114.992C117.079 114.781 116.629 114.675 116.04 114.675C115.529 114.675 115.14 114.753 114.873 114.908C114.606 115.053 114.473 115.275 114.473 115.575C114.473 115.786 114.556 115.964 114.723 116.108C114.89 116.253 115.145 116.358 115.49 116.425L117.773 116.858C118.818 117.07 119.584 117.408 120.073 117.875C120.562 118.342 120.806 118.975 120.806 119.775C120.806 120.808 120.423 121.614 119.656 122.192C118.901 122.77 117.812 123.058 116.39 123.058Z" fill="#F5F2EA"/>
<rect x="344.5" y="328.5" width="162.363" height="66.7653" rx="33.3826" fill="#A37100"/>
<rect x="344.5" y="328.5" width="162.363" height="66.7653" rx="33.3826" stroke="#CCA852"/>
<path d="M367.906 369.883L364.056 356.383H367.023L369.456 365.483H369.539L372.323 356.383H374.789L377.739 365.483H377.806L380.206 356.383H383.189L379.339 369.883H376.523L373.589 360.466H373.523L370.723 369.883H367.906ZM386.253 370.066C385.075 370.066 384.153 369.783 383.486 369.216C382.82 368.638 382.486 367.883 382.486 366.949C382.486 365.961 382.831 365.199 383.52 364.666C384.209 364.133 385.198 363.866 386.486 363.866H389.353V363.483C389.353 362.405 388.709 361.866 387.42 361.866C386.298 361.866 385.62 362.255 385.386 363.033H382.636C382.859 361.933 383.375 361.099 384.186 360.533C384.998 359.966 386.075 359.683 387.42 359.683C388.909 359.683 390.042 360.016 390.82 360.683C391.609 361.349 392.003 362.322 392.003 363.599V367.149H393.303V369.883H390.503V368.249H389.803C389.459 368.827 388.998 369.277 388.42 369.599C387.842 369.911 387.12 370.066 386.253 370.066ZM386.67 367.966C387.192 367.966 387.653 367.872 388.053 367.683C388.453 367.494 388.77 367.244 389.003 366.933C389.236 366.611 389.353 366.249 389.353 365.849V365.699H386.62C385.62 365.699 385.12 366.072 385.12 366.816C385.12 367.183 385.259 367.466 385.536 367.666C385.814 367.866 386.192 367.966 386.67 367.966ZM394.99 369.883V362.616H393.624V359.883H396.424V361.849H397.124C397.39 361.149 397.813 360.627 398.39 360.283C398.968 359.938 399.618 359.766 400.34 359.766H401.19V362.166H400.224C399.357 362.166 398.718 362.411 398.307 362.899C397.907 363.388 397.707 364.033 397.707 364.833V369.883H394.99ZM406.557 370.083C405.479 370.083 404.54 369.872 403.74 369.449C402.94 369.016 402.323 368.411 401.89 367.633C401.457 366.844 401.24 365.916 401.24 364.849C401.24 363.783 401.451 362.866 401.873 362.099C402.296 361.322 402.896 360.727 403.673 360.316C404.462 359.894 405.39 359.683 406.457 359.683C407.501 359.683 408.396 359.883 409.14 360.283C409.896 360.683 410.473 361.255 410.873 361.999C411.273 362.744 411.473 363.633 411.473 364.666V365.599H403.89C404.001 366.344 404.285 366.911 404.74 367.299C405.196 367.688 405.796 367.883 406.54 367.883C407.129 367.883 407.596 367.783 407.94 367.583C408.285 367.383 408.529 367.077 408.673 366.666H411.44C411.218 367.733 410.679 368.572 409.823 369.183C408.968 369.783 407.879 370.083 406.557 370.083ZM403.957 363.766H408.823C408.735 363.133 408.49 362.661 408.09 362.349C407.69 362.027 407.151 361.866 406.473 361.866C405.796 361.866 405.24 362.027 404.807 362.349C404.385 362.672 404.101 363.144 403.957 363.766ZM412.702 369.883V355.883H415.468V361.316H415.535C415.857 360.783 416.29 360.383 416.835 360.116C417.379 359.838 418.024 359.699 418.768 359.699C420.024 359.699 421.018 360.083 421.752 360.849C422.496 361.605 422.868 362.622 422.868 363.899V369.883H420.102V364.416C420.102 363.683 419.902 363.127 419.502 362.749C419.113 362.361 418.54 362.166 417.785 362.166C417.029 362.166 416.452 362.361 416.052 362.749C415.663 363.127 415.468 363.683 415.468 364.416V369.883H412.702ZM429.417 370.083C428.328 370.083 427.378 369.872 426.567 369.449C425.767 369.016 425.145 368.411 424.701 367.633C424.256 366.855 424.034 365.933 424.034 364.866C424.034 363.811 424.251 362.894 424.684 362.116C425.128 361.338 425.756 360.738 426.567 360.316C427.378 359.894 428.334 359.683 429.434 359.683C430.523 359.683 431.467 359.894 432.267 360.316C433.067 360.738 433.684 361.338 434.117 362.116C434.551 362.894 434.767 363.816 434.767 364.883C434.767 365.938 434.551 366.861 434.117 367.649C433.684 368.427 433.062 369.027 432.251 369.449C431.451 369.872 430.506 370.083 429.417 370.083ZM429.417 367.683C430.251 367.683 430.889 367.433 431.334 366.933C431.778 366.422 432.001 365.733 432.001 364.866C432.001 363.999 431.778 363.322 431.334 362.833C430.889 362.333 430.251 362.083 429.417 362.083C428.573 362.083 427.923 362.333 427.467 362.833C427.023 363.322 426.801 363.999 426.801 364.866C426.801 365.733 427.023 366.422 427.467 366.933C427.923 367.433 428.573 367.683 429.417 367.683ZM440.253 370.066C438.864 370.066 437.798 369.699 437.053 368.966C436.309 368.233 435.936 367.233 435.936 365.966V359.883H438.703V365.433C438.703 366.155 438.886 366.699 439.253 367.066C439.631 367.422 440.192 367.599 440.936 367.599C441.703 367.599 442.292 367.405 442.703 367.016C443.125 366.627 443.336 366.072 443.336 365.349V359.883H446.103V367.149H447.47V369.883H444.67V368.249H443.97C443.57 368.838 443.081 369.288 442.503 369.599C441.936 369.911 441.186 370.066 440.253 370.066ZM453.011 370.083C451.544 370.083 450.383 369.777 449.528 369.166C448.683 368.544 448.228 367.677 448.161 366.566H450.828C450.917 367.044 451.144 367.399 451.511 367.633C451.889 367.866 452.428 367.983 453.128 367.983C454.272 367.983 454.844 367.666 454.844 367.033C454.844 366.777 454.755 366.577 454.578 366.433C454.411 366.277 454.128 366.161 453.728 366.083L451.494 365.649C449.494 365.261 448.494 364.322 448.494 362.833C448.494 361.877 448.878 361.116 449.644 360.549C450.411 359.972 451.472 359.683 452.828 359.683C454.172 359.683 455.239 359.977 456.028 360.566C456.817 361.155 457.25 361.977 457.328 363.033H454.661C454.539 362.566 454.322 362.227 454.011 362.016C453.7 361.805 453.25 361.699 452.661 361.699C452.15 361.699 451.761 361.777 451.494 361.933C451.228 362.077 451.094 362.299 451.094 362.599C451.094 362.811 451.178 362.988 451.344 363.133C451.511 363.277 451.767 363.383 452.111 363.449L454.394 363.883C455.439 364.094 456.205 364.433 456.694 364.899C457.183 365.366 457.428 365.999 457.428 366.799C457.428 367.833 457.044 368.638 456.278 369.216C455.522 369.794 454.433 370.083 453.011 370.083ZM458.649 369.883V359.883H461.415V369.883H458.649ZM460.032 358.899C459.61 358.899 459.249 358.755 458.949 358.466C458.66 358.166 458.515 357.805 458.515 357.383C458.515 356.961 458.66 356.605 458.949 356.316C459.249 356.016 459.61 355.866 460.032 355.866C460.454 355.866 460.81 356.016 461.099 356.316C461.399 356.605 461.549 356.961 461.549 357.383C461.549 357.805 461.399 358.166 461.099 358.466C460.81 358.755 460.454 358.899 460.032 358.899ZM463.974 369.883V362.616H462.607V359.883H465.407V361.516H466.107C466.496 360.938 466.985 360.494 467.574 360.183C468.163 359.861 468.896 359.699 469.774 359.699C471.163 359.699 472.235 360.083 472.991 360.849C473.757 361.605 474.141 362.622 474.141 363.899V369.883H471.374V364.416C471.374 363.683 471.174 363.127 470.774 362.749C470.385 362.361 469.813 362.166 469.057 362.166C468.302 362.166 467.724 362.361 467.324 362.749C466.935 363.127 466.741 363.683 466.741 364.416V369.883H463.974ZM480.665 374.083C479.165 374.083 477.943 373.777 476.998 373.166C476.065 372.566 475.51 371.727 475.332 370.649H478.265C478.532 371.472 479.304 371.883 480.582 371.883C481.448 371.883 482.11 371.683 482.565 371.283C483.032 370.894 483.265 370.327 483.265 369.583V368.249H483.182C482.882 368.783 482.465 369.188 481.932 369.466C481.41 369.744 480.782 369.883 480.048 369.883C479.104 369.883 478.282 369.677 477.582 369.266C476.893 368.844 476.354 368.249 475.965 367.483C475.587 366.716 475.398 365.816 475.398 364.783C475.398 363.227 475.826 361.988 476.682 361.066C477.548 360.144 478.732 359.683 480.232 359.683C481.076 359.683 481.793 359.844 482.382 360.166C482.982 360.488 483.46 360.938 483.815 361.516H484.515V359.883H487.315V362.616H485.948V369.616C485.948 371.038 485.493 372.138 484.582 372.916C483.671 373.694 482.365 374.083 480.665 374.083ZM480.732 367.483C481.498 367.483 482.098 367.272 482.532 366.849C482.965 366.427 483.182 365.849 483.182 365.116V364.416C483.182 363.694 482.96 363.127 482.515 362.716C482.082 362.294 481.487 362.083 480.732 362.083C479.921 362.083 479.287 362.322 478.832 362.799C478.387 363.277 478.165 363.944 478.165 364.799C478.165 365.655 478.387 366.316 478.832 366.783C479.287 367.249 479.921 367.483 480.732 367.483Z" fill="#F5F2EA"/>
<rect x="0.5" y="328.5" width="162.363" height="66.7653" rx="33.3826" fill="#DCC793"/>
<rect x="0.5" y="328.5" width="162.363" height="66.7653" rx="33.3826" stroke="#CCA852"/>
<path d="M38.7555 369.883L34.9055 356.383H37.8722L40.3055 365.483H40.3888L43.1722 356.383H45.6388L48.5888 365.483H48.6555L51.0555 356.383H54.0388L50.1888 369.883H47.3722L44.4388 360.466H44.3722L41.5722 369.883H38.7555ZM58.5268 370.083C57.438 370.083 56.488 369.872 55.6768 369.449C54.8768 369.016 54.2546 368.411 53.8102 367.633C53.3657 366.855 53.1435 365.933 53.1435 364.866C53.1435 363.811 53.3602 362.894 53.7935 362.116C54.238 361.338 54.8657 360.738 55.6768 360.316C56.488 359.894 57.4435 359.683 58.5435 359.683C59.6324 359.683 60.5768 359.894 61.3768 360.316C62.1768 360.738 62.7935 361.338 63.2268 362.116C63.6602 362.894 63.8768 363.816 63.8768 364.883C63.8768 365.938 63.6602 366.861 63.2268 367.649C62.7935 368.427 62.1713 369.027 61.3602 369.449C60.5602 369.872 59.6157 370.083 58.5268 370.083ZM58.5268 367.683C59.3602 367.683 59.9991 367.433 60.4435 366.933C60.888 366.422 61.1102 365.733 61.1102 364.866C61.1102 363.999 60.888 363.322 60.4435 362.833C59.9991 362.333 59.3602 362.083 58.5268 362.083C57.6824 362.083 57.0324 362.333 56.5768 362.833C56.1324 363.322 55.9102 363.999 55.9102 364.866C55.9102 365.733 56.1324 366.422 56.5768 366.933C57.0324 367.433 57.6824 367.683 58.5268 367.683ZM65.9961 369.883V362.616H64.6294V359.883H67.4294V361.849H68.1294C68.3961 361.149 68.8183 360.627 69.3961 360.283C69.9739 359.938 70.6239 359.766 71.3461 359.766H72.1961V362.166H71.2294C70.3628 362.166 69.7239 362.411 69.3128 362.899C68.9128 363.388 68.7128 364.033 68.7128 364.833V369.883H65.9961ZM73.287 369.883V355.883H76.0537V363.466H76.1203L80.0537 359.883H83.3537L79.1037 363.716L83.6703 369.883H80.437L77.1537 365.399L76.0537 366.299V369.883H73.287ZM88.2636 370.083C86.7969 370.083 85.6358 369.777 84.7802 369.166C83.9358 368.544 83.4802 367.677 83.4136 366.566H86.0802C86.1691 367.044 86.3969 367.399 86.7636 367.633C87.1413 367.866 87.6802 367.983 88.3802 367.983C89.5247 367.983 90.0969 367.666 90.0969 367.033C90.0969 366.777 90.008 366.577 89.8302 366.433C89.6636 366.277 89.3802 366.161 88.9802 366.083L86.7469 365.649C84.7469 365.261 83.7469 364.322 83.7469 362.833C83.7469 361.877 84.1302 361.116 84.8969 360.549C85.6636 359.972 86.7247 359.683 88.0802 359.683C89.4247 359.683 90.4913 359.977 91.2802 360.566C92.0691 361.155 92.5025 361.977 92.5802 363.033H89.9136C89.7913 362.566 89.5747 362.227 89.2636 362.016C88.9525 361.805 88.5024 361.699 87.9136 361.699C87.4024 361.699 87.0136 361.777 86.7469 361.933C86.4802 362.077 86.3469 362.299 86.3469 362.599C86.3469 362.811 86.4302 362.988 86.5969 363.133C86.7636 363.277 87.0191 363.383 87.3636 363.449L89.6469 363.883C90.6913 364.094 91.458 364.433 91.9469 364.899C92.4358 365.366 92.6802 365.999 92.6802 366.799C92.6802 367.833 92.2969 368.638 91.5302 369.216C90.7747 369.794 89.6858 370.083 88.2636 370.083ZM93.8347 369.883V355.883H96.6013V361.316H96.668C96.9902 360.783 97.4235 360.383 97.968 360.116C98.5124 359.838 99.1569 359.699 99.9013 359.699C101.157 359.699 102.151 360.083 102.885 360.849C103.629 361.605 104.001 362.622 104.001 363.899V369.883H101.235V364.416C101.235 363.683 101.035 363.127 100.635 362.749C100.246 362.361 99.6735 362.166 98.918 362.166C98.1624 362.166 97.5847 362.361 97.1847 362.749C96.7958 363.127 96.6013 363.683 96.6013 364.416V369.883H93.8347ZM110.55 370.083C109.461 370.083 108.511 369.872 107.7 369.449C106.9 369.016 106.278 368.411 105.834 367.633C105.389 366.855 105.167 365.933 105.167 364.866C105.167 363.811 105.384 362.894 105.817 362.116C106.261 361.338 106.889 360.738 107.7 360.316C108.511 359.894 109.467 359.683 110.567 359.683C111.656 359.683 112.6 359.894 113.4 360.316C114.2 360.738 114.817 361.338 115.25 362.116C115.684 362.894 115.9 363.816 115.9 364.883C115.9 365.938 115.684 366.861 115.25 367.649C114.817 368.427 114.195 369.027 113.384 369.449C112.584 369.872 111.639 370.083 110.55 370.083ZM110.55 367.683C111.384 367.683 112.022 367.433 112.467 366.933C112.911 366.422 113.134 365.733 113.134 364.866C113.134 363.999 112.911 363.322 112.467 362.833C112.022 362.333 111.384 362.083 110.55 362.083C109.706 362.083 109.056 362.333 108.6 362.833C108.156 363.322 107.934 363.999 107.934 364.866C107.934 365.733 108.156 366.422 108.6 366.933C109.056 367.433 109.706 367.683 110.55 367.683ZM117.87 373.883V362.616H116.503V359.883H119.303V361.516H120.003C120.358 360.938 120.831 360.488 121.42 360.166C122.02 359.844 122.742 359.683 123.586 359.683C124.62 359.683 125.492 359.899 126.203 360.333C126.914 360.766 127.453 361.372 127.82 362.149C128.186 362.927 128.37 363.838 128.37 364.883C128.37 365.927 128.192 366.844 127.836 367.633C127.481 368.411 126.964 369.016 126.286 369.449C125.608 369.872 124.786 370.083 123.82 370.083C123.086 370.083 122.458 369.949 121.936 369.683C121.414 369.405 121.003 369.016 120.703 368.516H120.636V373.883H117.87ZM123.07 367.683C123.914 367.683 124.547 367.433 124.97 366.933C125.392 366.433 125.603 365.749 125.603 364.883C125.603 364.016 125.392 363.333 124.97 362.833C124.547 362.333 123.914 362.083 123.07 362.083C122.325 362.083 121.731 362.294 121.286 362.716C120.853 363.127 120.636 363.699 120.636 364.433V365.333C120.636 366.066 120.853 366.644 121.286 367.066C121.731 367.477 122.325 367.683 123.07 367.683Z" fill="#F5F2EA"/>
<rect x="249.279" width="29.0423" height="29.0423" rx="14.5211" fill="#B98C25"/>
<path d="M270.097 8.82178L261.198 17.7215L256.998 13.4221L255.597 14.9221L261.198 20.5218L271.497 10.2215L270.097 8.82178Z" fill="#F5F2EA"/>
<rect x="243.229" y="387.469" width="29.0423" height="29.0423" rx="14.5211" fill="#B98C25"/>
<path d="M264.047 396.291L255.147 405.191L250.947 400.891L249.546 402.391L255.147 407.991L265.446 397.691L264.047 396.291Z" fill="#F5F2EA"/>
<path d="M417.321 321.654C417.406 322.199 417.917 322.573 418.463 322.488L427.356 321.104C427.902 321.02 428.275 320.508 428.19 319.963C428.105 319.417 427.594 319.043 427.048 319.128L419.144 320.358L417.914 312.453C417.829 311.908 417.317 311.534 416.772 311.619C416.226 311.704 415.852 312.215 415.937 312.761L417.321 321.654ZM448.289 158.52L447.325 158.785C463.235 216.772 450.421 275.859 417.502 320.91L418.309 321.5L419.117 322.09C452.38 276.568 465.332 216.855 449.254 158.256L448.289 158.52ZM444.568 146.5L443.623 146.827C444.977 150.744 446.212 154.731 447.325 158.785L448.289 158.52L449.254 158.256C448.13 154.16 446.881 150.131 445.513 146.173L444.568 146.5Z" fill="#B98C25"/>
<path d="M79.3913 145.07C79.1536 144.571 78.5568 144.36 78.0583 144.597L69.9341 148.47C69.4356 148.708 69.2241 149.304 69.4617 149.803C69.6994 150.301 70.2962 150.513 70.7947 150.275L78.0162 146.833L81.4586 154.054C81.6962 154.553 82.293 154.764 82.7916 154.527C83.2901 154.289 83.5016 153.692 83.264 153.194L79.3913 145.07ZM96.8775 310.936L97.7234 310.403C65.4966 259.291 60.7006 198.688 79.4311 145.834L78.4886 145.5L77.546 145.166C58.6197 198.573 63.4643 259.817 96.0316 311.469L96.8775 310.936ZM102.5 319.358L103.317 318.781C101.391 316.053 99.5253 313.26 97.7234 310.403L96.8775 310.936L96.0316 311.469C97.8521 314.356 99.737 317.179 101.683 319.935L102.5 319.358Z" fill="#B98C25"/>
<rect x="440.716" y="210.481" width="29.0423" height="29.0423" rx="14.5211" fill="#B98C25"/>
<path d="M461.534 219.303L452.635 228.202L448.435 223.903L447.034 225.403L452.635 231.003L462.934 220.702L461.534 219.303Z" fill="#F5F2EA"/>
<rect x="55.2993" y="210.481" width="29.0423" height="29.0423" rx="14.5211" fill="#B98C25"/>
<path d="M76.1177 219.303L67.218 228.202L63.018 223.903L61.6174 225.403L67.2181 231.003L77.5174 220.702L76.1177 219.303Z" fill="#F5F2EA"/>
<defs>
<filter id="filter0_d_58_521" x="131" y="83" width="258.488" height="258.488" filterUnits="userSpaceOnUse" color-interpolation-filters="sRGB">
<feFlood flood-opacity="0" result="BackgroundImageFix"/>
<feColorMatrix in="SourceAlpha" type="matrix" values="0 0 0 0 0 0 0 0 0 0 0 0 0 0 0 0 0 0 127 0" result="hardAlpha"/>
<feMorphology radius="40" operator="dilate" in="SourceAlpha" result="effect1_dropShadow_58_521"/>
<feOffset dy="4"/>
<feGaussianBlur stdDeviation="18"/>
<feComposite in2="hardAlpha" operator="out"/>
<feColorMatrix type="matrix" values="0 0 0 0 0.8 0 0 0 0 0.658824 0 0 0 0 0.321569 0 0 0 0.19 0"/>
<feBlend mode="normal" in2="BackgroundImageFix" result="effect1_dropShadow_58_521"/>
<feBlend mode="normal" in="SourceGraphic" in2="effect1_dropShadow_58_521" result="shape"/>
</filter>
</defs>
</svg>
