<svg width="83" height="82" viewBox="0 0 83 82" fill="none" xmlns="http://www.w3.org/2000/svg">
<path d="M41.0602 58.5933H22.832C22.1414 58.5933 21.4791 58.8676 20.9907 59.356C20.5024 59.8443 20.228 60.5067 20.228 61.1973V76.8214C20.228 77.512 20.5024 78.1744 20.9907 78.6627C21.4791 79.1511 22.1414 79.4254 22.832 79.4254H38.4562C39.1468 79.4254 39.8091 79.1511 40.2975 78.6627C40.7858 78.1744 41.0602 77.512 41.0602 76.8214V58.5933Z" stroke="#A37100" stroke-width="4" stroke-linecap="round" stroke-linejoin="round"/>
<path d="M59.2882 58.5943H41.0601V76.8225C41.0601 77.5131 41.3345 78.1754 41.8228 78.6638C42.3112 79.1521 42.9735 79.4265 43.6641 79.4265H59.2882C59.9789 79.4265 60.6412 79.1521 61.1296 78.6638C61.6179 78.1754 61.8923 77.5131 61.8923 76.8225V61.1984C61.8923 60.5077 61.6179 59.8454 61.1296 59.357C60.6412 58.8687 59.9789 58.5943 59.2882 58.5943ZM48.8722 37.7622H33.2481C32.5574 37.7622 31.8951 38.0366 31.4067 38.5249C30.9184 39.0133 30.644 39.6756 30.644 40.3662V58.5943H51.4762V40.3662C51.4762 39.6756 51.2018 39.0133 50.7135 38.5249C50.2251 38.0366 49.5628 37.7622 48.8722 37.7622Z" stroke="#A37100" stroke-width="4" stroke-linecap="round" stroke-linejoin="round"/>
<path d="M80.1205 79.427V25.2635C80.1209 24.3193 79.8645 23.3928 79.3789 22.5831C78.8934 21.7734 78.1968 21.1109 77.3637 20.6665L43.5115 2.612C42.7576 2.21018 41.9163 2 41.062 2C40.2077 2 39.3664 2.21018 38.6125 2.612L4.76026 20.6665C3.92657 21.1104 3.22929 21.7727 2.74307 22.5825C2.25686 23.3922 2 24.319 2 25.2635V79.427" stroke="#A37100" stroke-width="4" stroke-linecap="round" stroke-linejoin="round"/>
</svg>
