<svg width="65" height="65" viewBox="0 0 65 65" fill="none" xmlns="http://www.w3.org/2000/svg">
<path d="M18.875 18.875H45.875M18.875 32.375H39.125M39.125 49.25H35.75L18.875 59.375V49.25H12.125C9.43968 49.25 6.86435 48.1833 4.96554 46.2845C3.06674 44.3857 2 41.8103 2 39.125V12.125C2 9.43968 3.06674 6.86435 4.96554 4.96554C6.86435 3.06674 9.43968 2 12.125 2H52.625C55.3103 2 57.8857 3.06674 59.7845 4.96554C61.6833 6.86435 62.75 9.43968 62.75 12.125V27.3125M56 62.75V62.7838M56 52.625C57.513 52.6202 58.9806 52.1079 60.168 51.1702C61.3554 50.2325 62.194 48.9236 62.5494 47.4529C62.9048 45.9822 62.7566 44.4349 62.1284 43.0584C61.5003 41.6819 60.4286 40.556 59.0847 39.8608C57.7421 39.173 56.2062 38.9597 54.727 39.2557C53.2477 39.5517 51.9122 40.3394 50.9375 41.4909" stroke="#A37100" stroke-width="4" stroke-linecap="round" stroke-linejoin="round"/>
</svg>
