<svg width="69" height="68" viewBox="0 0 69 68" fill="none" xmlns="http://www.w3.org/2000/svg">
<path d="M4.49557e-07 25.9252V10.3456C0.000410836 9.57708 0.21475 8.8239 0.619014 8.17035C1.02328 7.5168 1.6015 6.9887 2.28893 6.6452L14.7062 0.436535C15.2808 0.149453 15.9142 0 16.5564 0C17.1987 0 17.8321 0.149453 18.4066 0.436535L30.8239 6.6452C31.5114 6.9887 32.0896 7.5168 32.4938 8.17035C32.8981 8.8239 33.1124 9.57708 33.1129 10.3456V25.9252C33.1132 26.6943 32.8992 27.4484 32.4949 28.1027C32.0906 28.7571 31.512 29.2858 30.8239 29.6297L18.4066 35.8383C17.8321 36.1254 17.1987 36.2749 16.5564 36.2749C15.9142 36.2749 15.2808 36.1254 14.7062 35.8383L2.28893 29.6297C1.60087 29.2858 1.02223 28.7571 0.617925 28.1027C0.213619 27.4484 -0.000357978 26.6943 4.49557e-07 25.9252ZM4.30467 11.1237C4.09128 11.6292 4.08739 12.1988 4.29386 12.7072C4.50032 13.2156 4.90024 13.6212 5.40567 13.8348L14.4869 17.6676V28.4831C14.4869 29.032 14.7049 29.5584 15.093 29.9465C15.4811 30.3346 16.0075 30.5527 16.5564 30.5527C17.1053 30.5527 17.6317 30.3346 18.0198 29.9465C18.4079 29.5584 18.626 29.032 18.626 28.4831V17.6676L27.7072 13.8348C28.2014 13.6138 28.5893 13.2079 28.7877 12.7042C28.9862 12.2005 28.9793 11.6391 28.7687 11.1404C28.5581 10.6417 28.1604 10.2453 27.6609 10.0364C27.1615 9.82746 26.6001 9.82255 26.0971 10.0227L16.5564 14.0501L7.01165 10.0227C6.50612 9.80932 5.93653 9.80543 5.42814 10.0119C4.91974 10.2184 4.51828 10.6183 4.30467 11.1237ZM2.23926 52.283V34.2365L6.37836 36.306V52.283C6.37836 54.0007 7.7691 55.3873 9.48269 55.3873H10.5547C11.0297 53.0481 12.2988 50.9451 14.1469 49.4345C15.9951 47.9239 18.3086 47.0987 20.6955 47.0987C23.0825 47.0987 25.396 47.9239 27.2441 49.4345C29.0923 50.9451 30.3614 53.0481 30.8363 55.3873H35.3894C35.6609 54.0555 36.1921 52.7902 36.9528 51.6637C37.7134 50.5372 38.6886 49.5717 39.8225 48.8221C40.9564 48.0726 42.2268 47.5538 43.5613 47.2954C44.8957 47.037 46.268 47.044 47.5997 47.3161V12.9615C47.5997 12.1382 47.2727 11.3486 46.6905 10.7664C46.1083 10.1842 45.3187 9.85714 44.4954 9.85714H37.2354C37.1481 8.37705 36.665 6.94756 35.8364 5.71804H44.4954C48.4938 5.71804 51.7388 8.96309 51.7388 12.9615V18.1354H55.3854C56.539 18.1354 57.6698 18.4569 58.651 19.0637C59.6321 19.6705 60.4248 20.5387 60.9401 21.5708L67.6371 34.9608C68.0676 35.8259 68.2953 36.7738 68.2953 37.7382V53.3178C68.2953 54.9644 67.6411 56.5436 66.4768 57.708C65.3124 58.8723 63.7332 59.5264 62.0866 59.5264H55.671C55.196 61.8656 53.9269 63.9687 52.0788 65.4792C50.2306 66.9898 47.9171 67.815 45.5302 67.815C43.1432 67.815 40.8297 66.9898 38.9816 65.4792C37.1334 63.9687 35.8644 61.8656 35.3894 59.5264H30.8363C30.3614 61.8656 29.0923 63.9687 27.2441 65.4792C25.396 66.9898 23.0825 67.815 20.6955 67.815C18.3086 67.815 15.9951 66.9898 14.1469 65.4792C12.2988 63.9687 11.0297 61.8656 10.5547 59.5264H9.48269C7.56161 59.5264 5.71922 58.7633 4.36081 57.4049C3.0024 56.0465 2.23926 54.2041 2.23926 52.283ZM55.671 55.3873H62.0866C62.6355 55.3873 63.1619 55.1693 63.55 54.7812C63.9381 54.393 64.1562 53.8666 64.1562 53.3178V38.8309H51.7388V49.1787C53.7256 50.6687 55.1619 52.8625 55.671 55.3873ZM62.8813 34.6918L57.2438 23.421C57.0724 23.0769 56.8085 22.7874 56.4817 22.5848C56.1549 22.3823 55.7781 22.2749 55.3937 22.2745H51.7388V34.6918H62.8813ZM14.4869 57.4569C14.4869 59.1035 15.141 60.6827 16.3053 61.8471C17.4697 63.0114 19.0489 63.6655 20.6955 63.6655C22.3422 63.6655 23.9214 63.0114 25.0857 61.8471C26.2501 60.6827 26.9042 59.1035 26.9042 57.4569C26.9042 55.8102 26.2501 54.231 25.0857 53.0667C23.9214 51.9023 22.3422 51.2482 20.6955 51.2482C19.0489 51.2482 17.4697 51.9023 16.3053 53.0667C15.141 54.231 14.4869 55.8102 14.4869 57.4569ZM45.5302 63.6655C47.1768 63.6655 48.756 63.0114 49.9204 61.8471C51.0847 60.6827 51.7388 59.1035 51.7388 57.4569C51.7388 55.8102 51.0847 54.231 49.9204 53.0667C48.756 51.9023 47.1768 51.2482 45.5302 51.2482C43.8835 51.2482 42.3043 51.9023 41.14 53.0667C39.9756 54.231 39.3215 55.8102 39.3215 57.4569C39.3215 59.1035 39.9756 60.6827 41.14 61.8471C42.3043 63.0114 43.8835 63.6655 45.5302 63.6655Z" fill="#A37100"/>
</svg>
