<svg width="67" height="67" viewBox="0 0 67 67" fill="none" xmlns="http://www.w3.org/2000/svg">
<path d="M5.62646 36.0192C14.2944 25.7257 22.1695 19.7987 25.7624 17.364C26.9368 16.5667 28.4855 16.827 29.3774 17.9305C31.0715 20.041 32.7042 22.2 34.2735 24.4048C35.4687 26.0792 37.9906 26.1325 39.3145 24.5586C45.4323 17.293 53.7009 10.1338 53.7009 10.1338" stroke="#A37100" stroke-width="4" stroke-linecap="round" stroke-linejoin="round"/>
<path d="M60.9116 14.3094C61.8938 9.52431 61.8834 5.30572 61.8006 3.3192C61.7896 2.98167 61.6506 2.66096 61.412 2.42202C61.1733 2.18308 60.8527 2.04378 60.5152 2.03233C56.8296 1.8954 53.1407 2.19379 49.525 2.92131C48.4112 3.1491 48.0429 4.51141 48.8446 5.3146L58.5183 14.9883C59.323 15.7915 60.6838 15.4217 60.9116 14.3094ZM6.02124 64.0641C4.35274 64.0094 3.07474 63.0006 2.90611 61.341C2.77151 60.0393 2.66797 58.1061 2.66797 55.2483C2.66797 52.3906 2.77447 50.4558 2.90464 49.1556C3.07474 47.496 4.35274 46.4872 6.02124 46.431C7.00784 46.3985 8.32874 46.3733 10.0638 46.3733C11.7989 46.3733 13.1198 46.3985 14.1064 46.4325C15.7749 46.4872 17.0529 47.496 17.2215 49.1556C17.3546 50.4573 17.4596 52.3906 17.4596 55.2483C17.4596 58.1061 17.3531 60.0408 17.223 61.341C17.0529 63.0006 15.7749 64.0094 14.1064 64.0656C13.1183 64.0982 11.7989 64.1233 10.0638 64.1233C8.32874 64.1233 7.00784 64.0982 6.02124 64.0641ZM53.7835 64.0257C51.8606 63.9073 50.5249 62.5199 50.3859 60.5985C50.1965 57.9936 50.0013 53.2766 50.0013 44.8941C50.0013 36.5117 50.1965 31.7946 50.3859 29.1898C50.5249 27.2684 51.8606 25.8795 53.7835 25.7626C54.7154 25.7049 55.9032 25.665 57.3971 25.665C58.8911 25.665 60.0789 25.7049 61.0107 25.7626C62.9337 25.8809 64.2693 27.2684 64.4084 29.1898C64.5977 31.7946 64.793 36.5117 64.793 44.8941C64.793 53.2766 64.5977 57.9936 64.4084 60.5985C64.2693 62.5199 62.9337 63.9088 61.0107 64.0257C60.0789 64.0834 58.8926 64.1233 57.3971 64.1233C55.9032 64.1233 54.7154 64.0834 53.7835 64.0257ZM30.0326 64.0523C28.1629 63.971 26.7976 62.7211 26.6408 60.8573C26.4796 58.9374 26.3346 55.8193 26.3346 50.8108C26.3346 45.8024 26.4796 42.6843 26.6408 40.7643C26.7976 38.9006 28.1629 37.6507 30.0311 37.5693C31.2635 37.5186 32.497 37.4949 33.7305 37.4983C35.2718 37.4983 36.4847 37.5279 37.4284 37.5693C39.2981 37.6507 40.6633 38.9006 40.8201 40.7643C40.9813 42.6843 41.1263 45.8024 41.1263 50.8108C41.1263 55.8193 40.9813 58.9374 40.8201 60.8573C40.6633 62.7211 39.2981 63.971 37.4299 64.0523C36.4847 64.0937 35.2718 64.1233 33.7305 64.1233C32.4975 64.1262 31.2645 64.1025 30.0326 64.0523Z" stroke="#A37100" stroke-width="4" stroke-linecap="round" stroke-linejoin="round"/>
</svg>
