<svg width="59" height="74" viewBox="0 0 59 74" fill="none" xmlns="http://www.w3.org/2000/svg">
<path d="M13.625 29.125V17.5C13.625 8.93625 20.5612 2 29.125 2C37.6888 2 44.625 8.93625 44.625 17.5V29.125M29.125 48.5C30.1527 48.5 31.1383 48.0917 31.865 47.365C32.5917 46.6383 33 45.6527 33 44.625C33 43.5973 32.5917 42.6117 31.865 41.885C31.1383 41.1583 30.1527 40.75 29.125 40.75C28.0973 40.75 27.1117 41.1583 26.385 41.885C25.6583 42.6117 25.25 43.5973 25.25 44.625C25.25 45.6527 25.6583 46.6383 26.385 47.365C27.1117 48.0917 28.0973 48.5 29.125 48.5ZM29.125 48.5V60.125M8.2 29.125H50.05C53.46 29.125 56.25 31.915 56.25 35.325V62.45C56.25 67.565 52.065 71.75 46.95 71.75H11.3C6.185 71.75 2 67.565 2 62.45V35.325C2 31.915 4.79 29.125 8.2 29.125Z" stroke="#A37100" stroke-width="4" stroke-miterlimit="10" stroke-linecap="round" stroke-linejoin="round"/>
</svg>
