<svg width="56" height="66" viewBox="0 0 56 66" fill="none" xmlns="http://www.w3.org/2000/svg">
<path d="M17.2939 35.6468V9.64683C17.2939 8.42995 17.7773 7.26292 18.6378 6.40246C19.4983 5.542 20.6653 5.05859 21.8822 5.05859C23.0991 5.05859 24.2661 5.542 25.1266 6.40246C25.987 7.26292 26.4704 8.42995 26.4704 9.64683V32.588M26.4704 31.0586V24.9409C26.4704 23.7241 26.9538 22.557 27.8143 21.6966C28.6747 20.8361 29.8418 20.3527 31.0587 20.3527C32.2755 20.3527 33.4426 20.8361 34.303 21.6966C35.1635 22.557 35.6469 23.7241 35.6469 24.9409V32.588M35.6469 27.9998C35.6469 26.7829 36.1303 25.6159 36.9907 24.7554C37.8512 23.8949 39.0182 23.4115 40.2351 23.4115C41.452 23.4115 42.619 23.8949 43.4795 24.7554C44.34 25.6159 44.8234 26.7829 44.8234 27.9998V32.588" stroke="#A37100" stroke-width="4" stroke-linecap="round" stroke-linejoin="round"/>
<path d="M44.8235 31.0588C44.8235 29.8419 45.3069 28.6749 46.1674 27.8145C47.0279 26.954 48.1949 26.4706 49.4118 26.4706C50.6286 26.4706 51.7957 26.954 52.6561 27.8145C53.5166 28.6749 54 29.8419 54 31.0588V44.8235C54 49.691 52.0664 54.3592 48.6246 57.801C45.1827 61.2429 40.5146 63.1765 35.6471 63.1765H29.5294H30.1656C27.1262 63.177 24.1342 62.4226 21.4583 60.9811C18.7825 59.5396 16.5065 57.4561 14.8348 54.9176L14.2353 54C13.2809 52.5358 9.93051 46.6955 4.184 36.4791C3.59808 35.4376 3.44157 34.2087 3.74776 33.0536C4.05394 31.8986 4.79866 30.9086 5.82353 30.2941C6.91562 29.6407 8.19444 29.3701 9.4576 29.5253C10.7208 29.6804 11.8961 30.2523 12.7976 31.1506L17.2941 35.6471M8.11765 5.05882L5.05882 2M5.05882 17.2941H2M35.6471 5.05882L38.7059 2M38.7059 14.2353H41.7647" stroke="#A37100" stroke-width="4" stroke-linecap="round" stroke-linejoin="round"/>
</svg>
