<svg width="56" height="73" viewBox="0 0 56 73" fill="none" xmlns="http://www.w3.org/2000/svg">
<path d="M18.9791 2H10.5313C8.26862 2 6.09867 2.89883 4.49875 4.49875C2.89883 6.09866 2 8.26862 2 10.5313V61.7188C2 63.9814 2.89883 66.1513 4.49875 67.7513C6.09867 69.3512 8.26862 70.25 10.5313 70.25H44.6563C46.9189 70.25 49.0888 69.3512 50.6888 67.7513C52.2887 66.1513 53.1875 63.9814 53.1875 61.7188V36.125M18.9791 2C23.6921 2 27.5938 5.81821 27.5938 10.5313V19.0625C27.5938 21.3251 28.4926 23.4951 30.0925 25.095C31.6924 26.6949 33.8624 27.5938 36.125 27.5938H44.6563C46.9189 27.5938 49.0888 28.4926 50.6888 30.0925C52.2887 31.6924 53.1875 33.8624 53.1875 36.125M18.9791 2C32.9703 2 53.1875 22.3233 53.1875 36.125M17.1667 53.1875H39.9167M17.1667 41.8125H32.3333" stroke="#A37100" stroke-width="4" stroke-linecap="round" stroke-linejoin="round"/>
</svg>
