<svg width="852" height="887" viewBox="0 0 852 887" fill="none" xmlns="http://www.w3.org/2000/svg">
<path opacity="0.36" d="M843.365 226.616C842.572 226.198 841.655 225.864 840.737 225.655C839.819 225.446 838.735 225.32 837.65 225.32C835.815 225.32 833.479 225.696 830.81 226.49C823.593 228.538 813.624 233.136 802.486 238.904C791.349 244.672 779.002 251.651 767.031 258.464C765.529 259.3 764.069 260.178 762.567 261.014C760.148 262.393 757.77 263.772 755.393 265.11C754.35 265.695 753.307 266.28 752.306 266.865C744.297 271.421 736.831 275.6 730.449 278.944C729.322 279.529 728.196 280.114 727.153 280.658C723.983 282.288 721.105 283.625 718.686 284.67C714.639 286.384 710.593 287.93 706.589 289.518C703.502 290.73 700.415 291.901 697.329 293.029C681.895 298.672 666.503 303.478 651.111 307.282C645.48 308.661 639.849 309.956 634.217 311.085C600.513 317.939 566.726 320.573 532.229 319.402C525.889 319.193 519.507 318.817 513.083 318.357C502.697 317.605 492.185 316.518 481.632 315.097C469.16 313.426 456.521 311.336 443.799 308.828C443.298 308.744 442.714 308.619 442.005 308.452C442.005 308.452 441.963 308.452 441.922 308.452C441.212 308.285 440.378 308.117 439.46 307.908C426.446 304.899 395.537 297 390.281 293.029C390.281 293.029 390.281 293.029 390.24 292.946L394.452 287.345C395.537 287.429 396.747 287.596 397.873 287.679V287.596C397.873 287.596 398.123 287.596 398.248 287.596C410.804 290.73 423.818 291.525 437.208 294.576C455.895 298.839 474.666 303.812 493.77 306.069C496.065 306.362 498.317 306.571 500.57 306.738C519.048 308.201 537.944 308.201 557.049 306.864C563.431 306.404 569.771 305.819 576.195 305.108C579.407 304.732 582.577 304.356 585.789 303.896C598.594 302.141 611.359 299.842 624.123 297C627.293 296.289 630.463 295.537 633.633 294.785C639.974 293.238 646.314 291.566 652.571 289.769C661.998 287.052 671.342 284.085 680.602 280.867C695.994 275.475 711.094 269.331 725.693 262.56C734.453 258.506 743.046 254.201 751.43 249.687C765.404 242.164 778.835 234.014 791.516 225.32C801.569 218.424 809.578 213.074 813.874 205.676C814.708 204.213 815.459 202.709 816.001 201.037C816.669 199.031 817.086 196.857 817.211 194.475C817.378 192.218 817.253 189.752 816.919 187.035C816.544 184.068 815.876 180.891 814.833 177.297C813.832 173.828 812.498 171.153 810.954 169.189C810.162 168.185 809.327 167.391 808.41 166.723C807.492 166.054 806.574 165.552 805.573 165.176C804.072 164.633 802.486 164.382 800.86 164.382C798.649 164.382 796.355 164.884 793.977 165.678C792.809 166.096 791.599 166.555 790.431 167.141C789.847 167.433 789.264 167.726 788.638 168.018C786.51 169.147 784.383 170.484 782.339 171.905C781.88 172.24 781.38 172.574 780.921 172.908C777.5 175.416 774.33 178.133 771.661 180.724C770.993 181.351 770.368 181.978 769.784 182.563C768.991 183.357 768.282 184.151 767.615 184.862C753.557 200.326 747.676 213.199 733.827 226.532C731.7 228.58 729.364 230.628 726.819 232.718C725.526 233.763 724.192 234.808 722.773 235.853C719.853 238.026 716.892 240.158 713.889 242.206C712.596 243.125 711.261 243.961 709.926 244.839C708.341 245.884 706.797 246.929 705.212 247.932C703.377 249.102 701.542 250.23 699.706 251.359C698.872 251.86 697.996 252.404 697.12 252.905C670.257 268.871 641.016 280.491 610.566 287.47C609.857 287.638 609.19 287.805 608.48 287.93C606.145 288.432 603.85 288.933 601.515 289.393C600.096 289.686 598.72 289.936 597.301 290.187C595.424 290.521 593.506 290.856 591.629 291.19C589.626 291.525 587.624 291.817 585.58 292.11C584.12 292.319 582.66 292.528 581.2 292.737C580.408 292.82 579.573 292.904 578.781 293.029C575.402 293.447 572.065 293.782 568.687 294.116C567.519 294.241 566.309 294.283 565.141 294.367C562.138 294.617 559.093 294.785 556.089 294.952C554.838 294.994 553.587 295.035 552.335 295.119C549.332 295.244 546.328 295.286 543.325 295.328C542.115 295.328 540.906 295.328 539.696 295.328C536.568 295.328 533.439 295.286 530.353 295.161C529.268 295.161 528.183 295.119 527.141 295.077C523.762 294.952 520.383 294.743 517.004 294.534C516.212 294.492 515.378 294.45 514.585 294.367C510.497 294.074 506.451 293.656 502.405 293.238C502.322 293.238 502.196 293.238 502.113 293.238C493.478 292.277 484.927 290.939 476.418 289.351C475.959 289.268 475.542 289.184 475.083 289.059C471.371 288.348 467.658 287.554 463.946 286.718C463.028 286.509 462.152 286.3 461.234 286.091C457.981 285.339 454.727 284.503 451.474 283.667C450.431 283.374 449.388 283.124 448.345 282.831C445.217 281.953 442.088 281.076 438.96 280.156C437.917 279.864 436.916 279.529 435.873 279.195C432.703 278.192 429.533 277.147 426.363 276.102C425.445 275.809 424.569 275.475 423.651 275.182C420.189 273.97 416.727 272.675 413.265 271.379C412.681 271.17 412.139 270.961 411.555 270.752C407.508 269.164 403.504 267.534 399.5 265.82C396.496 264.525 390.615 260.387 387.236 260.303C386.986 260.178 386.694 260.052 386.444 259.927C383.065 258.297 379.686 256.667 376.307 254.953C374.347 253.95 372.386 252.905 370.468 251.86C369.091 251.108 367.673 250.398 366.296 249.645C360.832 246.636 328.838 226.574 336.68 218.173C336.68 218.173 336.68 218.173 336.722 218.173C336.764 218.173 336.805 218.173 336.847 218.173C339.683 219.051 342.478 220.096 345.231 221.308C345.482 221.433 345.774 221.559 346.024 221.684C364.419 229.876 380.896 243.585 402.628 240.826C404.13 240.659 405.631 240.408 407.175 240.032C415.058 238.235 422.859 234.348 430.492 229.5C434.288 227.076 438.042 224.401 441.713 221.642C460.067 207.808 476.501 191.424 488.098 190.17C488.932 190.086 489.724 190.045 490.559 190.003C491.393 189.961 492.227 190.003 493.061 190.003C493.896 190.003 494.771 190.086 495.606 190.17C497.316 190.337 499.068 190.546 500.778 190.755C503.406 191.09 505.992 191.382 508.62 191.466C515.544 191.633 522.344 190.128 528.267 182.563C530.937 179.178 534.482 171.655 537.861 162.961C538.57 161.122 539.237 159.241 539.946 157.36C540.739 155.103 541.531 152.846 542.241 150.589C542.866 148.709 543.45 146.828 543.993 144.989C544.41 143.526 544.827 142.063 545.202 140.642C545.953 137.8 546.579 135.125 547.038 132.701C547.288 131.489 547.455 130.36 547.622 129.274C547.747 128.229 547.872 127.226 547.914 126.348C547.955 125.47 547.955 124.676 547.914 123.966C547.622 120.622 546.245 117.529 544.034 114.729C543.492 114.018 542.866 113.35 542.199 112.681C541.156 111.636 539.988 110.633 538.737 109.672C538.069 109.128 537.36 108.627 536.609 108.125C534.357 106.579 531.812 105.116 529.059 103.737C528.017 103.193 526.89 102.692 525.806 102.19C515.753 97.6344 503.448 94.0399 491.643 90.9053C490.35 90.5709 489.015 90.2365 487.722 89.9022C473.456 86.2241 460.317 83.173 453.184 79.913C444.424 75.9006 437.25 64.7412 431.577 61.7319C421.649 56.5074 358.371 40.7086 353.157 46.1003C353.324 51.7009 353.032 58.0538 352.114 64.2396C351.447 68.8789 350.404 73.4764 348.944 77.6142C348.443 78.9935 347.943 80.3309 347.359 81.6266C346.566 83.382 345.899 85.4718 344.814 86.5585C343.73 87.6452 342.311 87.8124 339.975 85.8062C339.35 85.2628 338.891 79.9966 338.432 73.2675C337.681 62.0244 336.972 46.6436 335.846 42.0043C334.386 36.1529 327.754 20.8975 321.413 10.7411C320.829 9.82162 320.245 8.9439 319.703 8.10799C318.577 6.43616 317.451 4.97331 316.408 3.84483C315.365 2.67455 314.364 1.83864 313.488 1.33709C309.442 -0.836282 305.562 -0.209352 301.85 2.13121C297.804 4.72254 293.925 9.44545 290.296 14.9625C289.003 16.9269 287.709 19.0167 286.458 21.1065C285.499 22.7783 284.539 24.4501 283.58 26.1219C282.746 27.5848 281.953 29.0894 281.119 30.5105C280.66 31.3464 280.201 32.1823 279.742 33.0182C275.821 40.1653 272.234 46.4764 269.022 49.4857C263.975 54.2504 254.881 58.0538 245.705 61.7737C243.911 62.4842 242.159 63.1947 240.365 63.9052C238.113 64.8247 235.902 65.7443 233.817 66.6638C233.066 66.9981 232.357 67.3325 231.647 67.6668C229.145 68.8371 226.767 70.0492 224.723 71.3031C217.549 75.7334 210.666 81.2922 204.034 87.6034C187.974 102.942 173.25 122.795 158.984 142.021C147.68 157.235 136.709 171.989 125.572 183.733C125.53 184.151 125.572 184.528 125.614 184.946C125.781 185.74 126.239 186.576 126.948 187.37C130.87 192.051 142.09 196.356 147.471 198.487C147.805 198.613 148.097 198.738 148.347 198.864C148.597 198.947 148.889 199.072 149.098 199.156C152.31 200.494 155.563 201.664 158.817 202.792C159.61 203.085 160.444 203.336 161.236 203.628C164.406 204.673 167.618 205.676 170.872 206.596C170.914 206.596 170.997 206.596 171.039 206.638C174.418 207.599 177.796 208.435 181.217 209.229C182.009 209.396 182.802 209.605 183.594 209.772C186.723 210.483 189.851 211.151 192.98 211.778C193.188 211.778 193.397 211.862 193.564 211.904C193.564 211.904 193.606 211.904 193.647 211.904C198.569 212.865 203.491 213.743 208.455 214.579C210.082 215.247 211.375 216.209 212.168 217.504C212.209 217.713 212.209 217.964 212.168 218.173C211.292 222.687 194.315 226.49 188.224 227.535C188.224 227.535 188.141 227.535 188.099 227.535C187.724 227.619 187.39 227.661 187.098 227.703C187.057 227.703 187.015 227.703 186.973 227.703C186.723 227.703 186.473 227.786 186.348 227.786C181.759 228.246 177.046 228.455 172.207 228.497C162.613 228.538 152.685 227.912 142.674 227.285C137.794 226.992 132.913 226.699 128.033 226.449C125.405 226.323 122.777 226.24 120.149 226.198C115.144 226.073 110.222 226.114 105.3 226.365C100.002 226.658 94.7463 227.201 89.6156 228.12C85.8198 228.789 82.0657 229.709 78.3949 230.837C77.2687 231.172 76.1425 231.59 75.0162 231.966C73.3894 232.551 71.7626 233.136 70.1775 233.805C67.925 234.766 65.8394 236.145 63.7954 237.65C62.3354 238.737 60.959 239.865 59.5824 240.994C59.2904 241.244 58.9985 241.453 58.7065 241.704C55.4111 244.504 52.241 247.263 48.9457 248.935C43.5231 251.735 37.8917 254.285 32.3022 256.834C22.458 261.306 12.5304 265.653 3.10327 270.836C2.97815 271.003 2.97827 271.17 3.0199 271.421C3.27026 272.591 5.48096 274.681 9.02661 277.439C9.73572 277.983 10.4865 278.568 11.3208 279.153C13.7401 280.95 16.6183 282.915 19.8302 285.046C21.9575 286.467 24.21 287.93 26.5876 289.435C30.1332 291.692 33.8875 294.032 37.7667 296.415C59.6243 309.789 84.5684 323.665 89.0316 325.296C90.1578 325.713 91.3259 326.09 92.4939 326.466C94.8297 327.218 97.249 327.845 99.7101 328.43C100.961 328.723 102.171 329.015 103.423 329.266C110.931 330.896 118.689 332.275 125.906 334.282C127.115 334.616 128.283 334.992 129.451 335.368C134.123 336.915 138.503 338.796 142.34 341.387C143.3 342.056 144.218 342.724 145.094 343.477C121.818 349.997 99.3763 351.794 77.1434 349.328C59.8326 347.405 42.6887 342.933 25.2946 336.162C20.7896 334.407 16.5349 332.735 12.5304 331.105C10.5282 330.311 8.56775 329.517 6.64893 328.723C4.18787 327.72 1.85205 326.758 -0.442139 325.797C-3.48718 324.543 -6.4071 323.331 -9.2019 322.161C-15.7507 319.444 -21.7157 317.02 -27.3469 314.888C-45.6171 307.992 -60.4668 304.272 -81.4484 304.481C-86.287 304.523 -91.4594 304.774 -97.049 305.234C-98.926 305.401 -100.845 305.568 -102.805 305.777C-106.768 306.195 -110.898 306.696 -115.319 307.323C-121.951 308.243 -129.126 309.371 -136.968 310.751L-194.99 325.337C-187.274 333.153 -179.64 341.345 -172.007 349.704C-161.829 360.864 -151.568 372.274 -141.014 383.391C-135.717 388.95 -130.377 394.426 -124.913 399.734C-105.767 418.333 -85.2443 435.051 -61.9269 446.628C-59.7994 447.673 -41.8212 453.148 -28.0978 459.167C-26.5961 459.836 -25.0945 460.505 -23.7179 461.173C-20.9232 462.511 -18.5039 463.89 -16.5851 465.227C-12.7892 467.902 -11.1207 470.41 -13.4567 472.416C-33.4788 471.789 -57.8807 472.416 -77.444 468.697C-130.211 458.749 -167.544 421.467 -208.005 388.95C-232.282 369.474 -257.727 351.71 -288.302 342.599C-295.226 340.551 -301.775 339.004 -308.115 337.876C-310.243 337.5 -312.287 337.165 -314.372 336.873C-326.719 335.117 -338.315 334.658 -350.204 334.407C-352.164 334.365 -354.166 334.323 -356.169 334.282C-360.173 334.198 -364.219 334.114 -368.349 333.989C-374.564 333.78 -380.988 333.487 -387.745 332.944L-502.163 323.582C-461.493 359.025 -426.872 406.212 -383.824 439.523C-381.655 441.195 -379.486 442.825 -377.317 444.413C-368.516 450.766 -359.38 456.534 -349.745 461.508C-347.325 462.762 -344.906 463.932 -342.445 465.06C-327.637 471.873 -311.661 476.721 -294.142 478.936C-297.812 484.244 -305.404 487.003 -313.955 488.299C-315.165 488.508 -316.416 488.633 -317.668 488.8C-321.422 489.218 -325.301 489.385 -328.972 489.427C-335.145 489.469 -340.943 489.135 -345.24 488.758C-373.604 486.46 -398.507 475.384 -422.158 460.296C-424.786 458.624 -427.414 456.91 -430 455.113C-487.23 416.201 -538.537 356.308 -616.873 344.145C-623.839 343.059 -630.096 343.309 -635.978 344.229C-643.361 345.357 -650.202 347.531 -657.293 349.537C-658.461 349.871 -659.629 350.164 -660.797 350.498C-665.469 351.71 -670.349 352.755 -675.563 353.299C-682.404 353.967 -691.247 353.131 -697.796 355.096C-698.714 355.138 -699.59 355.221 -700.507 355.263C-700.507 355.263 -700.549 355.263 -700.591 355.263C-706.722 354.678 -713.647 356.015 -719.862 356.266C-731.625 356.726 -743.388 356.977 -755.151 357.311C-761.324 357.478 -767.456 357.687 -773.63 357.98C-774.339 357.98 -775.09 358.063 -775.799 358.105C-777.259 358.189 -778.719 358.272 -780.179 358.356C-781.472 358.439 -782.765 358.523 -784.058 358.607C-785.101 358.69 -786.144 358.732 -787.186 358.816C-788.897 358.941 -790.649 359.108 -792.359 359.275C-793.068 359.359 -793.735 359.401 -794.444 359.443C-796.655 359.652 -798.824 359.902 -800.993 360.153C-801.285 360.153 -801.536 360.195 -801.828 360.237C-804.247 360.529 -806.666 360.864 -809.086 361.24C-809.92 361.365 -810.796 361.532 -811.63 361.658C-813.173 361.909 -814.717 362.159 -816.218 362.452C-816.51 362.494 -816.802 362.535 -817.094 362.619C-817.804 362.744 -818.513 362.912 -819.222 363.079C-820.723 363.371 -822.225 363.706 -823.727 364.04C-824.144 364.124 -824.519 364.207 -824.936 364.333C-849.714 370.059 -875.492 380.842 -907.027 401.656C-908.278 402.492 -909.53 403.286 -910.781 404.122C-911.741 404.791 -912.742 405.46 -913.701 406.128C-916.246 407.884 -918.79 409.639 -921.293 411.436C-927.341 415.783 -933.264 420.422 -939.021 425.271C-941.148 427.068 -943.275 428.907 -945.361 430.746C-949.866 434.717 -954.329 438.813 -958.751 442.992C-964.34 448.3 -969.888 453.692 -975.436 459.125C-979.983 463.597 -984.571 468.111 -989.16 472.542C-990.995 474.339 -992.83 476.094 -994.666 477.85C-998.336 481.361 -1002.05 484.871 -1005.8 488.257C-1037.63 517.221 -1072.08 541.003 -1118.09 542.006C-1126.27 542.173 -1141.33 540.71 -1155.47 538.83C-1158.6 538.412 -1161.73 537.994 -1164.69 537.534C-1166.19 537.325 -1167.61 537.074 -1169.02 536.865C-1173.24 536.196 -1177.12 535.528 -1180.29 534.901C-1181.33 534.692 -1182.33 534.483 -1183.21 534.274C-1188.09 533.187 -1192.72 531.766 -1197.18 530.178C-1201.64 528.59 -1205.98 526.876 -1210.28 525.246C-1218.91 521.986 -1227.42 519.144 -1236.89 518.601C-1237.27 518.601 -1237.56 518.684 -1237.81 518.893C-1239.1 519.813 -1239.14 522.822 -1238.85 524.87C-1238.73 525.706 -1238.56 526.375 -1238.43 526.751C-1237.85 528.13 -1236.39 529.802 -1234.31 531.683C-1232.76 533.104 -1230.8 534.65 -1228.63 536.238C-1227.88 536.782 -1227.13 537.325 -1226.34 537.868C-1223.17 540.083 -1219.54 542.424 -1215.62 544.806C-1214.66 545.392 -1213.66 546.018 -1212.66 546.604C-1210.65 547.816 -1208.57 548.986 -1206.48 550.198C-1205.44 550.783 -1204.4 551.368 -1203.31 551.995C-1199.1 554.336 -1194.76 556.676 -1190.59 558.808C-1189.55 559.351 -1188.5 559.895 -1187.46 560.396C-1184.38 561.943 -1181.41 563.447 -1178.58 564.785C-1175.74 566.122 -1173.15 567.334 -1170.78 568.379C-1166.81 570.093 -1163.56 571.388 -1161.39 572.015C-1120.43 583.885 -1086.31 581.587 -1056.23 571.263C-1054.36 570.636 -1052.48 569.926 -1050.64 569.215C-1043.26 566.373 -1036.09 563.071 -1029.12 559.393C-1025.66 557.554 -1022.2 555.59 -1018.82 553.583C-1012.06 549.529 -1005.43 545.141 -998.962 540.543C-997.335 539.373 -995.75 538.203 -994.123 537.032C-989.326 533.48 -984.571 529.802 -979.858 526.04C-978.272 524.786 -976.729 523.532 -975.186 522.279C-970.514 518.475 -965.884 514.588 -961.295 510.701C-958.209 508.11 -955.164 505.477 -952.119 502.885C-949.074 500.294 -946.029 497.661 -942.942 495.07C-935.308 488.591 -927.675 482.155 -919.958 475.969C-910.698 468.571 -901.271 461.549 -891.552 455.238C-889.925 454.193 -888.298 453.148 -886.671 452.145C-865.439 438.98 -842.706 429.325 -817.011 426.483C-805.79 425.229 -792.567 425.522 -779.428 425.396C-770.543 425.313 -761.742 424.978 -753.566 423.975C-749.645 423.474 -745.807 422.888 -742.262 422.011C-734.253 419.963 -726.661 410.392 -720.654 405.083C-716.442 401.364 -712.646 398.187 -709.976 396.808C-709.183 396.515 -708.349 396.348 -707.557 396.139C-707.348 396.683 -707.223 397.268 -707.181 397.853C-708.266 402.325 -709.434 406.797 -710.685 411.269C-711.853 415.407 -713.063 419.503 -714.314 423.557C-714.439 424.017 -714.564 424.435 -714.731 424.895C-715.941 428.823 -717.276 432.71 -718.611 436.556C-718.819 437.183 -719.069 437.851 -719.278 438.478C-720.613 442.282 -722.031 446.043 -723.449 449.763C-723.741 450.474 -723.992 451.142 -724.284 451.853C-725.743 455.573 -727.287 459.292 -728.872 462.97C-729.164 463.597 -729.414 464.224 -729.706 464.851C-731.375 468.655 -733.085 472.416 -734.92 476.136C-735.087 476.429 -735.212 476.721 -735.379 477.056C-737.214 480.817 -739.133 484.537 -741.135 488.215C-741.302 488.508 -741.427 488.8 -741.594 489.093C-761.908 526.375 -790.732 559.31 -828.065 579.371C-828.065 579.371 -828.065 579.371 -828.107 579.371C-830.484 580.667 -832.945 581.879 -835.406 583.049C-835.782 583.217 -836.157 583.426 -836.574 583.593C-839.244 584.847 -841.955 586.059 -844.667 587.145C-876.035 599.935 -907.361 602.401 -938.896 610.426C-940.981 610.969 -943.109 611.512 -945.194 612.097C-947.614 612.766 -949.908 613.393 -952.119 614.062C-956.54 615.358 -960.628 616.611 -964.382 618.2C-965.3 618.576 -966.217 618.994 -967.135 619.454C-972.391 622.003 -976.938 625.305 -980.942 630.279C-981.234 630.613 -981.484 630.989 -981.776 631.365C-983.612 633.789 -985.322 636.548 -986.949 639.808C-987.658 641.229 -988.45 643.068 -989.326 645.283C-990.661 648.585 -992.163 652.723 -993.831 657.529C-996.042 663.924 -998.503 671.489 -1001.13 679.765C-1002.42 683.902 -1003.76 688.249 -1005.14 692.721C-1009.22 706.138 -1013.44 720.766 -1017.48 735.186C-1022.15 752.029 -1026.53 768.622 -1029.95 782.666C-1033.88 798.757 -1036.55 811.588 -1037 817.816C-1038.84 841.974 -1032.92 867.72 -1020.32 879.882C-1019.57 880.593 -1018.82 881.262 -1018.02 881.889C-1014.06 884.982 -1009.56 886.82 -1004.47 886.988C-1004.47 886.988 -1004.43 886.988 -1004.38 886.988C-995.291 887.28 -984.363 882.348 -971.849 869.851L-938.145 711.738C-926.757 712.95 -915.411 715.124 -904.065 717.423C-900.27 718.175 -896.515 718.969 -892.72 719.763C-877.578 722.898 -862.436 725.824 -847.128 726.868C-813.215 729.125 -774.422 725.991 -737.423 718.885C-735.963 718.593 -734.461 718.3 -733.001 718.008C-711.269 713.619 -690.288 707.893 -671.475 701.081C-633.809 687.455 -601.44 665.93 -568.904 645.367C-563.648 642.065 -558.434 638.763 -553.178 635.545C-549.382 633.204 -545.586 630.947 -541.749 628.69C-522.602 617.489 -502.872 607.458 -481.515 600.311C-466.374 595.254 -450.481 591.325 -434.63 587.731C-428.29 586.268 -421.95 584.888 -415.651 583.509C-412.522 582.799 -409.352 582.088 -406.266 581.378C-417.778 565.913 -436.507 557.847 -450.94 545.141C-452.859 543.469 -461.618 535.319 -468.209 527.879C-469.669 526.249 -471.045 524.619 -472.213 523.115C-472.797 522.362 -473.34 521.652 -473.799 520.983C-475.676 518.266 -476.552 516.176 -475.592 515.299C-474.299 514.797 -473.131 514.546 -472.005 514.505C-464.163 514.087 -460.075 522.989 -458.281 523.909C-430.584 538.119 -402.595 554.294 -373.229 567.543C-368.349 569.758 -363.427 571.89 -358.421 573.896C-353.457 575.902 -348.452 577.825 -343.363 579.622C-309.534 591.576 -272.826 600.436 -234.409 606.204C-228.027 607.166 -221.562 608.043 -215.054 608.837C-202.082 610.426 -188.942 611.68 -175.677 612.557C-162.413 613.477 -149.023 614.02 -135.55 614.271C-128.834 614.396 -122.077 614.438 -115.319 614.396C-95.0468 614.271 -74.6075 613.351 -54.2517 611.721C-47.4525 611.178 -40.6533 610.551 -33.8959 609.841C-5.57288 606.873 22.625 602.484 50.2388 596.717C62.2938 594.209 74.2236 591.45 86.0283 588.399C92.4938 586.727 98.9175 584.972 105.3 583.133C118.064 579.455 130.661 575.484 142.966 571.18C186.139 556.133 226.433 537.283 261.931 514.672C262.306 514.421 262.765 514.128 263.349 513.752C264.767 512.833 266.77 511.453 269.064 509.865C270.607 508.82 272.234 507.692 274.028 506.438C275.154 505.644 276.28 504.85 277.448 504.014C289.169 495.738 303.018 485.582 303.769 483.827L250.919 460.797C247.915 459.125 244.37 456.994 240.532 454.528C236.736 452.062 232.607 449.22 228.519 446.169C225.766 444.121 223.055 441.989 220.343 439.816C217.674 437.6 215.046 435.344 212.585 433.087C205.202 426.232 199.112 419.169 196.4 412.857C195.441 410.642 195.065 409.221 195.191 408.135C195.316 407.048 195.941 406.254 197.026 405.292C197.735 404.665 198.653 403.955 199.737 402.994C202.532 405.752 205.41 408.427 208.33 411.018C209.498 412.063 210.75 413.025 211.917 414.069C213.669 415.532 215.38 416.995 217.173 418.416C218.758 419.67 220.385 420.882 222.012 422.052C223.43 423.097 224.807 424.142 226.225 425.145C228.144 426.483 230.062 427.737 232.023 429.032C233.191 429.785 234.317 430.537 235.485 431.248C237.696 432.627 239.907 433.922 242.117 435.176C243.035 435.72 243.953 436.221 244.87 436.723C247.332 438.06 249.834 439.356 252.337 440.61C253.004 440.944 253.714 441.279 254.381 441.613C257.134 442.95 259.929 444.204 262.724 445.374C263.099 445.542 263.516 445.709 263.891 445.834C266.937 447.088 270.023 448.3 273.152 449.429C273.485 449.721 273.736 450.056 274.111 450.265C275.362 450.975 276.739 451.142 278.116 451.142C305.145 460.003 334.011 463.096 363.293 459.961C363.668 459.961 364.044 459.919 364.419 459.878C368.591 459.418 372.803 458.833 376.975 458.08C416.56 451.184 461.693 441.279 506.701 430.286C551.668 419.294 596.509 407.257 635.427 396.097C664.668 387.738 708.925 373.946 749.845 354.552C755.309 351.961 760.69 349.286 765.988 346.486C771.285 343.686 776.458 340.802 781.505 337.792C786.552 334.783 791.433 331.69 796.146 328.514C805.573 322.119 814.208 315.306 821.758 308.117C834.981 295.495 844.783 281.619 849.33 266.447C849.747 265.026 850.164 263.354 850.54 261.599C850.623 261.264 850.665 260.972 850.748 260.638C851.082 258.799 851.416 256.792 851.624 254.744C851.874 252.529 852 250.23 852 247.932C852.041 238.778 849.997 229.751 843.49 226.49L843.365 226.616Z" fill="white"/>
</svg>
