<svg width="82" height="82" viewBox="0 0 82 82" fill="none" xmlns="http://www.w3.org/2000/svg">
<path d="M53.4696 40.6001V53.4667M40.6022 2V14.8667M66.337 40.6001V53.4667M40.6022 66.3334H79.2044M66.337 79.2001H79.2044M14.8674 40.6001H27.7348M14.8674 14.9139L14.9103 14.8667M40.6022 40.6472L40.6451 40.6001M2 40.6472L2.04289 40.6001M40.6022 27.7805L40.6451 27.7334M40.6022 53.5139L40.6451 53.4667M53.4696 79.2473L53.5125 79.2001M40.6022 79.2473L40.6451 79.2001M79.2044 40.6472L79.2473 40.6001M79.2044 53.5139L79.2473 53.4667M66.337 14.9139L66.3799 14.8667M14.8674 66.3806L14.9103 66.3334M27.7348 4.57334V25.16C27.7348 25.8425 27.4637 26.4971 26.981 26.9797C26.4984 27.4623 25.8438 27.7334 25.1613 27.7334H4.57348C3.89095 27.7334 3.23638 27.4623 2.75375 26.9797C2.27113 26.4971 2 25.8425 2 25.16V4.57334C2 3.89085 2.27113 3.23631 2.75375 2.75371C3.23638 2.27112 3.89095 2 4.57348 2H25.1613C25.8438 2 26.4984 2.27112 26.981 2.75371C27.4637 3.23631 27.7348 3.89085 27.7348 4.57334ZM79.2044 4.57334V25.16C79.2044 25.8425 78.9333 26.4971 78.4506 26.9797C77.968 27.4623 77.3134 27.7334 76.6309 27.7334H56.0431C55.3605 27.7334 54.706 27.4623 54.2233 26.9797C53.7407 26.4971 53.4696 25.8425 53.4696 25.16V4.57334C53.4696 3.89085 53.7407 3.23631 54.2233 2.75371C54.706 2.27112 55.3605 2 56.0431 2H76.6309C77.3134 2 77.968 2.27112 78.4506 2.75371C78.9333 3.23631 79.2044 3.89085 79.2044 4.57334ZM27.7348 56.0401V76.6268C27.7348 77.3093 27.4637 77.9638 26.981 78.4464C26.4984 78.929 25.8438 79.2001 25.1613 79.2001H4.57348C3.89095 79.2001 3.23638 78.929 2.75375 78.4464C2.27113 77.9638 2 77.3093 2 76.6268V56.0401C2 55.3576 2.27113 54.703 2.75375 54.2204C3.23638 53.7379 3.89095 53.4667 4.57348 53.4667H25.1613C25.8438 53.4667 26.4984 53.7379 26.981 54.2204C27.4637 54.703 27.7348 55.3576 27.7348 56.0401Z" stroke="#A37100" stroke-width="4" stroke-linecap="round" stroke-linejoin="round"/>
</svg>
