<svg width="85" height="85" viewBox="0 0 85 85" fill="none" xmlns="http://www.w3.org/2000/svg">
<path d="M81.2234 28.3484H73.152L77.0163 22.5517C77.271 22.1699 77.2946 21.6789 77.0782 21.2742C76.8617 20.8697 76.4399 20.617 75.9809 20.617H74.6483V15.7012C74.6483 12.7278 72.229 10.3085 69.2556 10.3085H54.0314V3.73345C54.0314 1.67474 52.3566 0 50.2979 0H29.5047C27.446 0 25.7713 1.67474 25.7713 3.73345V11.8048L19.9746 7.94047C19.5927 7.68577 19.1017 7.66204 18.6971 7.87858C18.2926 8.09512 18.0399 8.51692 18.0399 8.97589V10.3085H9.80554C9.11825 10.3085 8.56106 10.8657 8.56106 11.553C8.56106 12.2403 9.11825 12.7974 9.80554 12.7974H19.2844C19.9717 12.7974 20.5288 12.2403 20.5288 11.553V11.3011L24.7722 14.13L20.5288 16.959V16.7071C20.5288 16.0198 19.9717 15.4626 19.2844 15.4626H2.48897V12.7974H3.99795C4.68524 12.7974 5.24243 12.2403 5.24243 11.553C5.24243 10.8657 4.68524 10.3085 3.99795 10.3085H1.24448C0.557197 10.3085 0 10.8657 0 11.553V16.7071C0 17.3944 0.557197 17.9516 1.24448 17.9516H18.0399V19.2842C18.0399 19.7432 18.2924 20.165 18.6971 20.3815C19.1007 20.5974 19.5918 20.575 19.9746 20.3196L25.7713 16.4552V24.5266C25.7713 26.5853 27.446 28.2601 29.5047 28.2601H50.2979C52.3566 28.2601 54.0314 26.5853 54.0314 24.5266V17.9516H67.0052V20.6168H65.6726C65.2136 20.6168 64.7918 20.8693 64.5753 21.274C64.3588 21.6788 64.3825 22.1697 64.6372 22.5515L68.5016 28.3482H60.4302C58.3715 28.3482 56.6967 30.0229 56.6967 32.0816V52.8748C56.6967 54.9335 58.3715 56.6083 60.4302 56.6083H67.0052V67.0049H61.7628V65.6723C61.7628 65.2133 61.5102 64.7915 61.1055 64.575C60.7008 64.3584 60.2098 64.3822 59.828 64.6369L54.0314 68.5012V60.4298C54.0314 58.3711 52.3566 56.6964 50.2979 56.6964H29.5047C27.446 56.6964 25.7713 58.3711 25.7713 60.4298V60.739C25.7713 61.4263 26.3285 61.9835 27.0158 61.9835C27.7031 61.9835 28.2603 61.4263 28.2603 60.739V60.4298C28.2603 59.7435 28.8184 59.1854 29.5047 59.1854H33.5027V63.095C33.5027 63.7823 34.0599 64.3395 34.7472 64.3395H45.0556C45.7429 64.3395 46.3001 63.7823 46.3001 63.095V59.1854H50.2981C50.9844 59.1854 51.5426 59.7435 51.5426 60.4298V81.2234C51.5426 81.9096 50.9844 82.4678 50.2981 82.4678H29.5047C28.8184 82.4678 28.2603 81.9096 28.2603 81.2234V66.7127C28.2603 66.0254 27.7031 65.4682 27.0158 65.4682C26.3285 65.4682 25.7713 66.0254 25.7713 66.7127V67.005H10.2204V65.6724C10.2204 65.2135 9.96782 64.7917 9.56312 64.5751C9.15858 64.3586 8.66742 64.3823 8.28561 64.637L0.55421 69.7914C0.208078 70.0222 0 70.4106 0 70.8268C0 71.2429 0.207912 71.6315 0.55421 71.8622L8.28561 77.0163C8.66792 77.2714 9.15907 77.2944 9.56312 77.0782C9.96766 76.8617 10.2204 76.4399 10.2204 75.9809V74.6483H25.7713V81.2234C25.7713 83.2821 27.446 84.9568 29.5047 84.9568H50.2979C52.3566 84.9568 54.0314 83.2821 54.0314 81.2234V73.152L59.828 77.0163C60.2103 77.2714 60.7015 77.2944 61.1055 77.0782C61.5101 76.8617 61.7628 76.4399 61.7628 75.9809V74.6483H69.2556C72.229 74.6483 74.6483 72.229 74.6483 69.2556V56.6084H81.2234C83.2821 56.6084 84.9568 54.9337 84.9568 52.875V32.0818C84.9568 30.0231 83.2821 28.3484 81.2234 28.3484ZM35.9915 2.48897H43.811V5.15416H35.9915V2.48897ZM51.5424 24.5266C51.5424 25.2129 50.9842 25.7711 50.2979 25.7711H29.5047C28.8184 25.7711 28.2603 25.2129 28.2603 24.5266V3.73345C28.2603 3.04716 28.8184 2.48897 29.5047 2.48897H33.5027V6.39864C33.5027 7.08593 34.0599 7.64313 34.7472 7.64313H45.0556C45.7429 7.64313 46.3001 7.08593 46.3001 6.39864V2.48897H50.2981C50.9844 2.48897 51.5426 3.04716 51.5426 3.73345V24.5266H51.5424ZM68.2495 15.4628H54.0312V12.7974H69.2554C70.8565 12.7974 72.1592 14.1002 72.1592 15.7012V21.8614C72.1592 22.5487 72.7164 23.1059 73.4037 23.1059H73.6556L70.8266 27.3493L67.9976 23.1059H68.2495C68.9368 23.1059 69.494 22.5487 69.494 21.8614V16.7073C69.494 16.0198 68.937 15.4628 68.2495 15.4628ZM43.811 61.8509H35.9915V59.1857H43.811V61.8509ZM8.97589 72.1594C8.2886 72.1594 7.7314 72.7166 7.7314 73.4038V73.6557L3.48804 70.8268L7.7314 67.9978V68.2497C7.7314 68.937 8.2886 69.4942 8.97589 69.4942H25.7713V72.1594H8.97589ZM72.1594 69.2556C72.1594 70.8566 70.8566 72.1594 69.2556 72.1594H60.5183C59.831 72.1594 59.2738 72.7166 59.2738 73.4038V73.6557L55.0304 70.8268L59.2738 67.9978V68.2497C59.2738 68.937 59.831 69.4942 60.5183 69.4942H68.2497C68.937 69.4942 69.4942 68.937 69.4942 68.2497V56.6086H72.1594V69.2556ZM82.4678 52.875C82.4678 53.5613 81.9096 54.1195 81.2234 54.1195H60.4302C59.7439 54.1195 59.1857 53.5613 59.1857 52.875V32.0818C59.1857 31.3955 59.7439 30.8373 60.4302 30.8373H64.4281V34.747C64.4281 35.4343 64.9853 35.9915 65.6726 35.9915H68.4261C69.1134 35.9915 69.6706 35.4343 69.6706 34.747C69.6706 34.0597 69.1134 33.5025 68.4261 33.5025H66.9171V30.8373H74.7366V33.5025H74.2337C73.5464 33.5025 72.9892 34.0597 72.9892 34.747C72.9892 35.4343 73.5464 35.9915 74.2337 35.9915H75.9811C76.6684 35.9915 77.2256 35.4343 77.2256 34.747V30.8373H81.2234C81.9096 30.8373 82.4678 31.3955 82.4678 32.0818V52.875Z" fill="#A37100"/>
<path d="M78.5583 43.811H73.4042C72.7169 43.811 72.1597 44.3682 72.1597 45.0555V50.2097C72.1597 50.897 72.7169 51.4542 73.4042 51.4542H78.5583C79.2456 51.4542 79.8028 50.897 79.8028 50.2097V45.0555C79.8028 44.3682 79.2456 43.811 78.5583 43.811ZM77.3138 48.9654H74.6486V46.3002H77.3138V48.9654Z" fill="#A37100"/>
<path d="M47.6325 79.8033C48.3198 79.8033 48.877 79.2461 48.877 78.5588V73.4046C48.877 72.7174 48.3198 72.1602 47.6325 72.1602H42.4784C41.7911 72.1602 41.2339 72.7174 41.2339 73.4046V78.5588C41.2339 79.2461 41.7911 79.8033 42.4784 79.8033H47.6325ZM43.7229 74.649H46.388V77.3141H43.7229V74.649Z" fill="#A37100"/>
<path d="M47.6325 15.4624H42.4784C41.7911 15.4624 41.2339 16.0196 41.2339 16.7069V21.861C41.2339 22.5483 41.7911 23.1055 42.4784 23.1055H47.6325C48.3198 23.1055 48.877 22.5483 48.877 21.861V16.7069C48.877 16.0194 48.32 15.4624 47.6325 15.4624ZM46.388 20.6166H43.7229V17.9514H46.388V20.6166Z" fill="#A37100"/>
</svg>
